<svg xmlns="http://www.w3.org/2000/svg"><defs><font horiz-adv-x="512"><font-face units-per-em="512" ascent="480" descent="-32"/><glyph horiz-adv-x="256"/><glyph unicode="" d="M399.892 343.42H344.48v46.814c0 21.25-17.22 38.486-38.485 38.486H41.765c-21.24 0-38.485-17.236-38.485-38.486V32.108c0-7.09 5.74-12.828 12.828-12.828H399.89c7.082 0 12.83 5.74 12.83 12.828V330.59c0 7.09-5.747 12.83-12.828 12.83zM41.765 411.66h264.23c11.81 0 21.425-9.613 21.425-21.426V343.42H20.34v46.814c0 11.813 9.612 21.426 21.425 21.426zM395.66 36.34H20.34v290.02h375.32V36.34zm-119.42 145c0-23.55 19.1-42.633 42.66-42.633s42.64 19.084 42.64 42.634c0 23.558-19.084 42.65-42.64 42.65s-42.66-19.09-42.66-42.65zm68.24 0c0-14.102-11.48-25.573-25.58-25.573-14.112 0-25.6 11.47-25.6 25.574 0 14.112 11.487 25.59 25.6 25.59 14.1 0 25.58-11.477 25.58-25.59z" horiz-adv-x="416"/><glyph unicode="" d="M147.23 266.65v-85.3h69.948l58.002-57.995v201.297l-58.002-58.002H147.23zm82.01-12.062l28.88 28.88V164.54l-33.878 33.87H164.29v51.18h59.953l4.997 4.998zM224 437.25c-117.77 0-213.25-95.48-213.25-213.25S106.23 10.75 224 10.75 437.25 106.23 437.25 224 341.77 437.25 224 437.25zm0-409.44C115.817 27.81 27.81 115.825 27.81 224c0 108.174 88.007 196.19 196.19 196.19 108.183 0 196.19-88.016 196.19-196.19 0-108.175-88.007-196.19-196.19-196.19z" horiz-adv-x="448"/><glyph unicode="" d="M147.23 266.65v-85.3h69.948l58.002-57.995v201.297l-58.002-58.002H147.23zm82.01-12.062l28.88 28.88V164.54l-33.88 33.87h-59.95v51.18h59.952l4.998 4.998zm165.81 96.77l-13.753-10.238c24.415-32.712 38.893-73.255 38.893-117.12 0-43.866-14.478-84.41-38.893-117.113L395.05 96.65c26.507 35.535 42.2 79.61 42.2 127.35 0 47.74-15.694 91.822-42.2 127.358zm-41.26-223.995c20.168 27.022 32.272 60.4 32.272 96.637 0 36.235-12.103 69.614-32.27 96.637l-13.662-10.17C358.173 286.29 369 256.42 369 224s-10.82-62.284-28.87-86.467l13.66-10.17zm-40.983 30.512C326.61 176.368 334.89 199.2 334.89 224c0 24.798-8.28 47.64-22.083 66.124l-13.66-10.17c11.677-15.645 18.683-34.97 18.683-55.954s-7.006-40.31-18.684-55.953l13.66-10.172zM223.99 27.81C115.818 27.81 27.81 115.817 27.81 224s88.007 196.19 196.18 196.19c53.913 0 102.753-21.917 138.255-57.228l12.12 12.12c-38.567 38.386-91.67 62.168-150.374 62.168-117.76 0-213.24-95.47-213.24-213.25 0-117.77 95.48-213.25 213.24-213.25 58.704 0 111.808 23.782 150.376 62.167l-12.12 12.13C326.743 49.726 277.904 27.81 223.99 27.81z" horiz-adv-x="448"/><glyph unicode="" d="M396.745 339.155C333.153 339.155 281.59 287.6 281.59 224c0-41.55 22.075-77.844 55.062-98.095H175.348c32.987 20.25 55.062 56.545 55.062 98.095 0 63.6-51.563 115.155-115.155 115.155S.1 287.6.1 224c0-63.6 51.563-115.155 115.155-115.155h281.49C460.337 108.845 511.9 160.4 511.9 224s-51.563 115.155-115.155 115.155zM17.16 224c0 54.087 44.008 98.095 98.095 98.095S213.35 278.087 213.35 224s-44.008-98.095-98.095-98.095S17.16 169.913 17.16 224zm379.585-98.095c-54.087 0-98.095 44.008-98.095 98.095s44.008 98.095 98.095 98.095S494.84 278.087 494.84 224s-44.008-98.095-98.095-98.095z"/><glyph unicode="" d="M434.974 334.89L325.3 268.933v74.487c0 14.127-11.463 25.59-25.59 25.59H26.75c-14.144 0-25.59-11.463-25.59-25.59V104.58c0-14.128 11.446-25.59 25.59-25.59h272.96c14.127 0 25.59 11.462 25.59 25.59v75.903l112.09-67.373h41.45v221.78h-43.866zM308.24 104.58c0-4.707-3.833-8.53-8.53-8.53H26.75c-4.715 0-8.53 3.823-8.53 8.53v238.84c0 4.706 3.815 8.53 8.53 8.53h272.96c4.697 0 8.53-3.824 8.53-8.53V104.58zm153.54 25.59h-19.66L325.3 200.392v48.63l114.405 68.807h22.075V130.17z" horiz-adv-x="480"/><glyph unicode="" d="M208 428.722c-113.073 0-204.72-91.647-204.72-204.72C3.28 110.93 94.927 19.28 208 19.28S412.72 110.93 412.72 224c0 113.073-91.647 204.72-204.72 204.72zm0-17.06c103.477 0 187.66-84.183 187.66-187.66 0-45.524-16.31-87.307-43.383-119.836-18.71 7.813-62.875 23.14-90.215 31.213-2.332.732-2.7.85-2.7 10.553 0 8.014 3.3 16.085 6.515 22.916 3.482 7.42 7.613 19.9 9.096 31.095 4.148 4.815 9.796 14.312 13.428 32.412 3.183 15.953 1.7 21.758-.415 27.206-.217.575-.45 1.14-.617 1.708-.8 3.74.3 23.175 3.032 38.253 1.883 10.346-.484 32.346-14.728 50.546-8.997 11.503-26.207 25.622-57.644 27.588l-17.243-.016c-30.905-1.95-48.13-16.07-57.128-27.573-14.244-18.2-16.61-40.2-14.727-50.54 2.748-15.085 3.832-34.52 3.05-38.185-.167-.64-.4-1.208-.634-1.783-2.1-5.448-3.6-11.254-.4-27.206 3.615-18.1 9.263-27.597 13.428-32.412 1.466-11.196 5.598-23.674 9.096-31.096 2.55-5.43 3.75-12.82 3.75-23.266 0-9.705-.368-9.82-2.55-10.512-28.273-8.347-73.272-24.607-90.05-31.954-27.603 32.68-44.28 74.862-44.28 120.886 0 103.476 84.183 187.66 187.66 187.66zM76.984 89.817c19.21 7.842 57.51 21.504 82.668 28.935 14.628 4.615 14.628 16.935 14.628 26.83 0 8.206-.566 20.302-5.365 30.53-3.3 7.007-7.065 19.02-7.897 28.423-.183 2.2-1.216 4.232-2.882 5.68-2.416 2.117-7.33 9.864-10.463 25.49-2.482 12.37-1.432 15.08-.416 17.694.433 1.116.85 2.215 1.183 3.456 2.05 7.488-.234 32.087-2.716 45.732-1.082 5.93.283 22.783 11.38 36.978 9.945 12.72 25.006 19.81 44.215 21.033l16.176.016c19.726-1.24 34.786-8.33 44.75-21.05 11.095-14.195 12.444-31.047 11.36-36.985-2.465-13.636-4.764-38.235-2.715-45.715.352-1.25.75-2.35 1.184-3.466 1.017-2.616 2.066-5.324-.4-17.694-3.13-15.627-8.063-23.374-10.48-25.49-1.648-1.45-2.68-3.482-2.88-5.68-.817-9.405-4.582-21.417-7.88-28.423-3.783-8.04-8.13-18.743-8.13-30.18 0-9.897 0-22.216 14.776-26.873 24.074-7.114 62.56-20.334 82.884-28.326C306.028 57.13 259.397 36.338 208 36.338c-50.93 0-97.162 20.425-131.016 53.48z" horiz-adv-x="416"/><glyph unicode="" d="M250.638 180.083l12.062 12.06-86.7 86.7-86.7-86.7 12.063-12.06 66.107 66.107V-23.846h17.06V246.19zM133.35 61.453v17.06H22.46v290.02h307.08V78.514H218.65v-17.06H346.6v324.14H5.4V61.454z" horiz-adv-x="352"/><glyph unicode="" d="M295.42 232.53H82.17v102.36c0 51.738 42.1 93.83 93.847 93.83 51.73 0 93.813-42.092 93.813-93.83v-34.12h17.06v34.12c0 61.234-49.647 110.89-110.873 110.89-61.25 0-110.907-49.656-110.907-110.89V232.53H5.4V2.22h341.2v230.31h-51.18zm34.12-213.25H22.46v196.19h307.08V19.28z" horiz-adv-x="352"/><glyph unicode="" d="M264.53 437.042v25.798h-17.06v-25.798C110.307 432.542.1 320.28.1 182.825c0-9.047.5-18.31 1.5-27.556l16.993.607c1.033 28.63 24.257 51.063 52.896 51.063 29.204 0 52.978-23.774 52.978-52.988h17.06c0 29.214 23.774 52.988 52.996 52.988 28.89 0 52.413-23.24 52.946-52.005V22.853c0-20.783 16.894-37.693 37.686-37.693s37.702 16.91 37.702 37.693h-17.06c0-11.378-9.263-20.633-20.642-20.633s-20.626 9.255-20.626 20.633v131.1h.05c0 29.213 23.757 52.987 52.98 52.987s52.995-23.774 52.995-52.988h17.06c0 29.214 23.774 52.988 52.98 52.988 28.39 0 51.612-22.225 52.862-50.597l17.01-.517c.95 9.047 1.433 18.126 1.433 26.998 0 137.455-110.207 249.72-247.37 254.218zM440.594 224c-26.506 0-49.614-14.803-61.51-36.57C367.19 209.198 344.065 224 317.56 224c-26.507 0-49.615-14.803-61.51-36.57-11.895 21.767-35.02 36.57-61.526 36.57s-49.63-14.803-61.526-36.57C121.103 209.198 97.995 224 71.488 224c-21.657 0-40.967-9.696-53.795-25.082 8.364 123.418 112.04 221.28 238.307 221.28 126.235 0 229.91-97.844 238.29-221.23C481.446 214.312 462.154 224 440.595 224z"/><glyph unicode="" d="M322.07 386.07h-85.3v17.06c0 18.842-15.277 34.12-34.12 34.12h-85.3c-18.843 0-34.12-15.278-34.12-34.12v-17.06h-85.3v-17.06h17.577L32.583 44.87c0-18.843 15.277-34.12 34.12-34.12h187.66c18.843 0 34.12 15.277 34.12 34.12l16.777 324.14h16.81v17.06zm-221.78 17.06c0 9.413 7.664 17.06 17.06 17.06h85.3c9.413 0 17.06-7.647 17.06-17.06v-17.06H100.29v17.06zM271.456 45.753l-.033-.433v-.45c0-9.397-7.647-17.06-17.06-17.06H66.703c-9.396 0-17.06 7.663-17.06 17.06v.45l-.016.45-17.044 323.24h255.6L271.457 45.753zM151.47 334.89h17.06V61.93h-17.06v272.96zM117.733 62.48l-17.46 272.426-17.026-1.082 17.46-272.427zm119.154 271.877l-17.027 1.066-17.21-272.96 17.027-1.066z" horiz-adv-x="320"/><glyph unicode="" d="M456.52 67.84l-90.473 90.473 12.07 12.07-12.062 12.062-36.177-36.177-60.334 60.318 72.488 72.505c9.655-3.44 19.75-5.18 30.105-5.18 23.89 0 46.357 9.305 63.258 26.19 26.074 26.09 33.47 64.866 18.843 98.778l-4.973 11.545-38.876-38.876-31.305-.425.416 29.855 39.636 39.626-11.52 4.99c-11.305 4.89-23.308 7.37-35.67 7.37-23.9 0-46.357-9.304-63.234-26.197-24.74-24.723-32.688-60.834-20.984-93.438l-72.463-72.463L112.713 363.4l12.07 12.062-66.324 66.332-36.22-36.17 66.357-66.348 12.054 12.06 102.552-102.534-72.472-72.472c-9.68 3.466-19.817 5.215-30.205 5.215-23.89 0-46.356-9.305-63.24-26.198-26.133-26.115-33.514-64.94-18.81-98.895l4.988-11.512L63.09 84.566l29.846.4-.425-31.304-38.875-38.876L65.18 9.812C76.45 4.956 88.404 2.49 100.716 2.49c23.9 0 46.35 9.297 63.234 26.182 24.7 24.707 32.654 60.776 21.025 93.33l72.505 72.514 60.335-60.31-36.203-36.203 12.062-12.06 12.06 12.06L396.2 7.538c8.055-8.063 18.776-12.503 30.163-12.503 11.388 0 22.1 4.44 30.164 12.503 16.63 16.62 16.62 43.676-.007 60.302zM46.38 405.625l12.07 12.045 42.21-42.208L88.597 363.4 46.38 405.625zM167.168 120.71c11.83-27.463 5.83-58.86-15.277-79.976-13.662-13.66-31.83-21.183-51.17-21.183-5.557 0-11.022.618-16.344 1.85l25.1 25.1.756 55.76-54.304-.733L30.02 75.62c-5.698 24.158 1.3 49.648 19.326 67.666 13.67 13.67 31.846 21.2 51.18 21.2 10.02 0 19.734-2.008 28.89-5.973l5.323-2.3L307.845 329.32l-2.3 5.324c-11.903 27.497-5.922 58.918 15.228 80.06 13.662 13.67 31.838 21.2 51.172 21.2 5.606 0 11.112-.633 16.485-1.874l-25.89-25.89-.75-54.312 55.762.758 25.124 25.115c5.63-24.114-1.375-49.554-19.343-67.54-13.678-13.66-31.854-21.19-51.197-21.19-9.988 0-19.675 1.998-28.813 5.93l-5.315 2.29-173.132-173.164 2.29-5.315zm277.3-101.11c-4.84-4.84-11.27-7.505-18.102-7.505-6.84 0-13.26 2.666-18.1 7.506l-90.466 90.466 36.185 36.186 90.473-90.473c9.98-9.98 9.98-26.208.01-36.18z" horiz-adv-x="480"/><glyph unicode="" d="M202.975 209.206c.333-.416.8-.767 1.166-1.166 4.7-5.83 11.796-9.63 19.86-9.63 14.127 0 25.59 11.446 25.59 25.59 0 7.513-3.3 14.194-8.43 18.875-.666.75-1.283 1.517-2.266 2.266l-103.41 78.687c-3.015 2.316-7.347 2.432-10.495 0-3.766-2.9-4.467-8.297-1.567-12.062l79.552-102.56zM224 437.233c-2.8 0-5.53-.316-8.297-.416v-8.846h-.233v-93.063h17.06v84.833c104.225-4.515 187.66-90.448 187.66-195.74 0-108.175-88-196.174-196.19-196.174S27.81 115.826 27.81 224c0 54.096 22.008 103.143 57.544 138.662l-12.13 12.13C34.625 336.206 10.75 282.893 10.75 224c0-117.77 95.463-213.234 213.25-213.234S437.25 106.23 437.25 224c0 117.77-95.463 213.233-213.25 213.233z" horiz-adv-x="448"/><glyph unicode="" d="M380.504 454.31H268.098L9.69 196.578 212.144-6.31 470.31 251.173v113.54l-89.806 89.597zm72.746-196.056L212.178 17.814 33.822 196.555l241.33 240.696h98.296l79.802-79.618v-99.378zM333.88 352.01c0-18.777 15.302-34.046 34.12-34.046 18.817 0 34.12 15.27 34.12 34.045 0 18.783-15.303 34.06-34.12 34.06-18.818 0-34.12-15.277-34.12-34.06zm51.18 0c0-9.364-7.656-16.986-17.06-16.986-9.405 0-17.06 7.622-17.06 16.985 0 9.37 7.655 17 17.06 17 9.405 0 17.06-7.63 17.06-17z" horiz-adv-x="480"/><glyph unicode="" d="M208.9 294.91c-37.686 0-68.25-30.547-68.25-68.25 0-37.684 30.564-68.247 68.25-68.247 37.693 0 68.23 30.563 68.23 68.248 0 37.703-30.537 68.25-68.23 68.25zm0-119.436c-28.222 0-51.19 22.965-51.19 51.188s22.967 51.19 51.19 51.19c28.214 0 51.17-22.967 51.17-51.19s-22.956-51.188-51.17-51.188zm-.01 187.667c-75.378 0-136.48-61.092-136.48-136.48 0-75.378 61.102-136.48 136.48-136.48s136.48 61.102 136.48 136.48c0 75.39-61.1 136.48-136.48 136.48zm0-255.9c-65.848 0-119.42 53.572-119.42 119.42 0 65.85 53.572 119.42 119.42 119.42s119.42-53.57 119.42-119.42c0-65.848-53.57-119.42-119.42-119.42zm203.83 119.42c0 113.074-91.656 204.72-204.72 204.72S3.28 339.735 3.28 226.66c0-62.308 27.873-118.077 71.788-155.62l-34.92-43.775L53.494 16.62l34.995 43.874c33.636-24.233 74.887-38.552 119.51-38.552 44.425 0 85.51 14.195 119.063 38.235l34.796-43.558 13.328 10.645-34.67 43.407c44.16 37.553 72.206 93.48 72.206 155.99zm-392.38 0c0 103.478 84.184 187.66 187.66 187.66 103.477 0 187.66-84.182 187.66-187.66C395.66 123.186 311.477 39 208 39 104.524 39 20.34 123.187 20.34 226.66z" horiz-adv-x="416"/><glyph unicode="" d="M256 351.834c-70.673 0-127.95-57.303-127.95-127.967 0-70.647 57.277-127.933 127.95-127.933 70.664 0 127.95 57.286 127.95 127.933 0 70.664-57.286 127.967-127.95 127.967zm0-238.84c-61.143 0-110.89 49.738-110.89 110.873 0 61.152 49.747 110.907 110.89 110.907s110.89-49.755 110.89-110.907c0-61.135-49.747-110.873-110.89-110.873zM247.537 479.9h17.06V377.424h-17.06V479.9zm0-409.556h17.06V-31.9h-17.06V70.344zM.1 232.53h102.36v-17.06H.1v17.06zm409.44 0H511.9v-17.06H409.54v17.06zm21.43 178.984l12.064-12.063-71.322-71.32-12.063 12.062 71.32 71.322zM81.15 37.544L69.087 49.61l71.322 71.322 12.062-12.063L81.15 37.545zm.01 373.967l71.323-71.32-12.06-12.063-71.324 71.323 12.06 12.06zM430.995 37.544l-71.322 71.322 12.063 12.063 71.322-71.322-12.063-12.063z"/><glyph unicode="" d="M504.224 301.17l-248.22 119.47L7.776 301.16l34.978-21.09V95.6h17.06v174.182l51.18-30.862V27.36h290.02v211.51l103.21 62.3zm-248.22 100.544l212.4-102.244L256.13 171.337 43.61 299.48l212.392 102.234zM383.954 44.42h-255.9v184.22l128.075-77.228 127.824 77.162V44.42z"/><glyph unicode="" d="M352.618 339.505l14.436 14.428 14.627-14.628 18.094 18.093-41.317 41.318-18.093-18.093 14.627-14.628-14.435-14.428c-31.98 29.322-73.704 48.13-119.76 51.113v34.57h-25.59v-34.57C92.82 396.083 11.81 311 11.81 206.94 11.81 98.582 99.643 10.75 208 10.75s196.19 87.832 196.19 196.19c0 51.113-19.56 97.645-51.572 132.565zM208 27.81c-98.77 0-179.13 80.368-179.13 179.13 0 98.777 80.36 179.13 179.13 179.13s179.13-80.353 179.13-179.13c0-98.762-80.36-179.13-179.13-179.13zm8.53 203.154V343.42h-17.06V230.964c-9.913-3.532-17.06-12.896-17.06-24.024 0-11.13 7.147-20.492 17.06-24.025V147.23h17.06v35.685c9.913 3.532 17.06 12.896 17.06 24.025 0 11.128-7.147 20.492-17.06 24.024z" horiz-adv-x="416"/><glyph unicode="" d="M294.078 275.148L240 441.518l-54.095-166.37H9.69L152.484 172.8 97.656 6.484 240 109.654 382.327 6.485l-54.81 166.313 142.793 102.35H294.078zm17.228-107.69l38.3-116.176L240 130.722l-109.624-79.44 42.233 128.08-10.197 7.296-99.645 71.43h135.53L240 386.348l41.684-128.26h135.53L307.392 179.36l3.916-11.903z" horiz-adv-x="480"/><glyph unicode="" d="M-.33 282.944v-119.42h51.18V61.164h17.06v102.36h131.233l124.6-100.827v324.14l-125.39-103.893H-.33zm17.06-102.36v85.3h68.24v-85.3H16.73zm192.51 89.223l97.444 80.743V98.448l-101.502 82.134h-103.15v85.3H204.5l4.74 3.925zm232.575 101.51l-12.27-12.278c39.926-31.256 65.724-79.753 65.724-134.273 0-55.97-27.215-105.583-68.982-136.705l12.345-12.345c44.783 34.295 73.697 88.29 73.697 149.05 0 59.3-27.55 112.155-70.515 146.55zm-54.83-54.837l-12.403-12.403c26.332-16.635 43.917-45.924 43.917-79.31 0-34.86-19.152-65.283-47.458-81.46l12.428-12.43c31.255 19.61 52.088 54.272 52.088 93.89 0 38.143-19.258 71.763-48.572 91.713z"/><glyph unicode="" d="M239.512 185.61c-37.627 0-68.24-30.612-68.24-68.24s30.613-68.24 68.24-68.24c37.627 0 68.24 30.614 68.24 68.24s-30.612 68.24-68.24 68.24zm0-119.42c-28.223 0-51.18 22.96-51.18 51.18s22.957 51.18 51.18 51.18c28.222 0 51.18-22.957 51.18-51.18s-22.958-51.18-51.18-51.18zm0 196.19c-57.586 0-107.29-33.82-130.682-82.575l12.77-12.762c19.434 45.95 64.966 78.277 117.912 78.277s98.478-32.33 117.913-78.277l12.77 12.762c-23.392 48.756-73.097 82.576-130.683 82.576zm.833 136.49c-95.213 0-179.48-47.566-230.443-120.13l12.228-12.228C69.812 336.07 149.83 381.81 240.345 381.81c90.09 0 169.758-45.317 217.524-114.323l12.228 12.23c-51.04 72.012-134.964 119.152-229.753 119.152zm0-68.24c-76.454 0-143.603-40.468-181.254-101.078l12.42-12.412c34.205 57.66 97.063 96.43 168.835 96.43 71.34 0 133.89-38.286 168.226-95.38l12.38 12.378c-37.77 60.044-104.584 100.06-180.605 100.06z" horiz-adv-x="480"/><glyph unicode="" d="M348.985 177.497l55.91-55.936H304.154L95.967 343.34H10.45v-17.06h78.137L296.772 104.5h108.124l-55.76-55.777 12.06-12.062 76.354 76.38-76.503 76.52zM88.587 121.56H10.45V104.5h85.517l82.6 88-12.444 11.68zM304.17 326.28h100.726l-55.76-55.777 12.06-12.062 76.354 76.38-76.503 76.52-12.062-12.063 55.91-55.936H296.773l-82.967-88.715 12.46-11.645z" horiz-adv-x="448"/><glyph unicode="" d="M3.28 428.72V19.28h409.44v409.44H3.28zM395.66 36.34H20.34v375.32h375.32V36.34zM97.093 266.65c0-61.25 49.656-110.89 110.9-110.89s110.88 49.64 110.88 110.89v59.71h17.077v17.06h-51.18v-17.06h17.043v-59.71c0-51.738-42.09-93.83-93.82-93.83-51.747 0-93.84 42.092-93.84 93.83v59.71h17.077v17.06H80.05v-17.06h17.043v-59.71z" horiz-adv-x="416"/><glyph unicode="" d="M402.07 445.78c-37.685 0-68.24-30.563-68.24-68.24 0-6.54.975-12.853 2.69-18.842L137.025 275.08c-11.795 20.434-33.82 34.22-59.094 34.22-37.677 0-68.24-30.563-68.24-68.24 0-37.685 30.563-68.24 68.24-68.24 19.743 0 37.486 8.44 49.947 21.85l128.55-92.39c-5.022-9.503-7.897-20.316-7.897-31.812 0-37.693 30.563-68.25 68.24-68.25s68.24 30.556 68.24 68.25c0 37.677-30.563 68.23-68.24 68.23-20.042 0-38.018-8.704-50.505-22.464l-128.375 92.24c5.282 9.687 8.28 20.783 8.28 32.586 0 6.34-.932 12.454-2.55 18.285L343.27 343.03c11.853-20.16 33.72-33.737 58.802-33.737 37.686 0 68.24 30.554 68.24 68.248 0 37.677-30.554 68.24-68.24 68.24zm-85.3-324.14c28.222 0 51.18-22.958 51.18-51.17 0-28.223-22.958-51.19-51.18-51.19s-51.18 22.966-51.18 51.19c0 28.212 22.958 51.17 51.18 51.17zM77.93 189.88c-28.222 0-51.18 22.958-51.18 51.18s22.958 51.18 51.18 51.18 51.18-22.958 51.18-51.18c0-28.22-22.958-51.18-51.18-51.18zm324.14 136.472c-28.222 0-51.18 22.966-51.18 51.188s22.958 51.18 51.18 51.18 51.18-22.958 51.18-51.18-22.958-51.188-51.18-51.188z" horiz-adv-x="480"/><glyph unicode="" d="M208 445.78c-108.358 0-196.19-42.01-196.19-93.84V96.04C11.81 44.23 99.642 2.22 208 2.22c108.34 0 196.19 42.01 196.19 93.82v255.9c0 51.83-87.85 93.84-196.19 93.84zm0-17.06c105.56 0 179.13-40.46 179.13-76.78 0-36.302-73.57-76.76-179.13-76.76-105.576 0-179.13 40.46-179.13 76.76 0 36.32 73.554 76.78 179.13 76.78zM387.13 113.1V96.04c0-36.302-73.57-76.76-179.13-76.76-105.576 0-179.13 40.46-179.13 76.76v47.05C59.49 110.353 128.147 87.52 208 87.52c79.835 0 148.508 22.832 179.13 55.57V113.1zm0 68.24c0-36.302-73.57-76.76-179.13-76.76-105.576 0-179.13 40.46-179.13 76.76v47.05c30.62-32.737 99.277-55.57 179.13-55.57 79.835 0 148.508 22.832 179.13 55.57v-47.05zm0 85.3c0-36.302-73.57-76.76-179.13-76.76-105.576 0-179.13 40.46-179.13 76.76v47.05c30.62-32.737 99.277-55.57 179.13-55.57 79.835 0 148.508 22.832 179.13 55.57v-47.05z" horiz-adv-x="416"/><glyph unicode="" d="M409.463 43.64L293.258 159.855c23.358 28.09 37.42 64.167 37.42 103.543 0 89.514-72.555 162.07-162.07 162.07-89.5 0-162.07-72.556-162.07-162.07 0-89.5 72.57-162.07 162.07-162.07 39.384 0 75.453 14.06 103.542 37.418L388.355 22.53l21.108 21.11zM23.597 263.4c0 79.96 65.04 145.01 145.01 145.01 79.953 0 145.01-65.05 145.01-145.01s-65.057-145.01-145.01-145.01c-79.97 0-145.01 65.05-145.01 145.01z" horiz-adv-x="416"/><glyph unicode="" d="M345.425 224c41.867 43.033 60.6 84.908 44.9 110.748-6.257 10.304-20.677 22.582-53.813 22.582-18.168 0-39.41-3.682-62.326-10.462-15.22 54.995-40.576 90.382-69.848 90.382-28.913 0-54.012-34.537-69.29-88.4-20.25 5.516-39.05 8.48-55.37 8.48-33.136 0-47.555-12.277-53.82-22.58-12.587-20.71-4.148-51.623 23.758-87.042 6.223-7.897 13.32-15.844 21.075-23.775-41.833-43-60.534-84.858-44.832-110.698C32.122 102.94 46.542 90.66 79.67 90.66c16.32 0 35.128 2.974 55.387 8.48 15.27-53.853 40.367-88.39 69.28-88.39 29.273 0 54.63 35.387 69.85 90.374 22.907-6.78 44.157-10.463 62.333-10.463 33.13 0 47.55 12.28 53.805 22.576 15.7 25.847-3.033 67.74-44.9 110.764zm-8.913 116.27c13.91 0 32.012-2.498 39.235-14.385 10.404-17.118-5.256-51.755-42.484-89.957-13.578 12.704-29.063 25.39-46.198 37.668-1.85 20.2-4.807 39.21-8.722 56.628 21.65 6.48 41.567 10.047 58.17 10.047zm-93.155-174.306c-11.68-7.097-23.49-13.636-35.26-19.6-11.763 5.964-23.575 12.503-35.254 19.6-12.295 7.472-24.05 15.31-35.22 23.366-.725 11.18-1.192 22.692-1.192 34.67 0 11.995.468 23.516 1.2 34.71 10.93 7.898 22.658 15.712 35.186 23.325 11.687 7.097 23.5 13.636 35.278 19.61 11.778-5.974 23.59-12.513 35.278-19.61 9.638-5.857 18.668-11.854 27.364-17.893.975-12.837 1.517-26.214 1.517-40.142 0-13.92-.542-27.306-1.517-40.134-8.695-6.04-17.734-12.046-27.38-17.902zm25.206-4.23c-1.674-13.77-3.923-26.64-6.555-38.653-11.288 3.983-22.916 8.69-34.703 14.037 8.306 4.482 16.627 9.23 24.915 14.27 5.58 3.39 11.02 6.855 16.343 10.346zm-79.677-24.61c-14.228-6.463-28.222-11.953-41.66-16.4-3.23 14.227-5.855 29.763-7.704 46.515 7.94-5.416 16.044-10.74 24.457-15.853 8.288-5.04 16.6-9.79 24.906-14.262zm-69.114 65.767c-8.738 6.932-17.018 13.98-24.674 21.085 7.514 7.006 15.81 14.078 24.674 21.142-.26-6.938-.4-13.977-.4-21.116 0-7.14.14-14.18.4-21.11zm19.767 77.98c1.84 16.702 4.464 32.203 7.687 46.407 13.436-4.448 27.423-9.938 41.65-16.394-8.305-4.482-16.635-9.23-24.923-14.27-8.44-5.13-16.568-10.396-24.415-15.743zm87.772 30.012c11.787 5.348 23.407 10.046 34.695 14.028 2.632-12.003 4.88-24.865 6.555-38.635-5.323 3.5-10.754 6.948-16.326 10.338-8.288 5.04-16.62 9.788-24.924 14.27zm61.318-59.743c11.862-9.047 22.774-18.144 32.42-27.14-9.646-8.99-20.558-18.085-32.42-27.13.433 8.87.683 17.917.683 27.13 0 9.212-.25 18.26-.683 27.14zm-84.292 169.05c19.435 0 40.168-29.64 53.546-78.553-16.094-5.598-32.83-12.63-49.79-20.9-19.392 9.455-38.468 17.268-56.644 23.2 13.396 47.53 33.763 76.253 52.888 76.253zM40.436 325.885c7.222 11.887 25.323 14.386 39.243 14.386 14.776 0 32.203-2.83 51.113-8.02-4.524-19.643-7.848-41.335-9.705-64.534-13.987-10.447-26.79-21.125-38.22-31.838-7.304 7.48-14.002 14.96-19.85 22.39-22.85 29-31.08 53.64-22.582 67.617zM79.67 107.72c-13.912 0-32.012 2.5-39.235 14.378-10.404 17.127 5.248 51.755 42.458 89.957 11.562-10.77 24.4-21.375 38.185-31.67 1.85-23.242 5.18-44.967 9.713-64.642-18.907-5.183-36.334-8.023-51.12-8.023zm124.668-79.91c-19.125 0-39.492 28.72-52.888 76.245 18.177 5.94 37.26 13.745 56.645 23.208 16.96-8.272 33.695-15.302 49.79-20.908-13.38-48.915-34.112-78.545-53.547-78.545zm171.408 94.288c-7.222-11.88-25.315-14.378-39.227-14.378-16.61 0-36.528 3.566-58.178 10.047 3.915 17.426 6.873 36.435 8.73 56.644 17.127 12.288 32.612 24.966 46.19 37.67 37.228-38.21 52.888-72.855 42.484-89.982z" horiz-adv-x="416"/><glyph unicode="" d="M13.926 428.72V19.28l162.07 119.42L338.074 19.28v409.44H13.926zM321.014 53.042l-145.018 106.85-145.01-106.85V411.66h290.028V53.042zM90.696 326.36H261.3V309.3H90.696v17.06zm0-68.24H261.3v-17.06H90.696v17.06z" horiz-adv-x="352"/><glyph unicode="" d="M402.888 112.818H42.928l71.873 71.897-12.06 12.062-91.882-91.905 91.88-91.89 12.063 12.063-70.705 70.713h375.853v153.54h-17.06zM44.695 334.598h359.81l-71.29-71.305 12.062-12.062 91.865 91.88-91.88 91.908-12.063-12.063 71.27-71.297H27.636v-153.54h17.06z" horiz-adv-x="448"/><glyph unicode="" d="M395.66 181.37C395.66 77.895 311.477-6.29 208-6.29c-103.476 0-187.66 84.184-187.66 187.66 0 103.235 83.8 187.252 186.952 187.644V283.69l162.07 93.838-162.07 93.82v-85.274C94.536 385.69 3.28 294.22 3.28 181.37 3.28 68.325 94.92-23.35 208-23.35c113.064 0 204.72 91.674 204.72 204.72h-17.06zM224.352 441.76L335.31 377.53l-110.958-64.25V441.76z" horiz-adv-x="416"/><glyph unicode="" d="M418.316 249.682c.033 1.366.2 2.682.2 4.048 0 73.02-59.194 132.215-132.215 132.215-52.612 0-97.91-30.804-119.195-75.287-9.205 4.632-19.567 7.297-30.572 7.297-33.77 0-61.742-24.574-67.207-56.794C29.11 247.367.146 209.315.146 164.4c0-56.494 45.79-102.293 102.268-102.343l316.102.016c51.596.268 93.338 42.15 93.338 93.798 0 51.73-41.84 93.664-93.538 93.814zm.108-170.55l-3.723-.017H102.43c-46.99.05-85.224 38.3-85.224 85.283 0 36.403 23.174 68.806 57.653 80.636l9.595 3.28 1.69 9.997c4.183 24.675 25.374 42.584 50.39 42.584 7.97 0 15.676-1.85 22.9-5.48l15.552-7.814 7.505 15.693c19.068 39.85 59.818 65.59 103.81 65.59 63.5 0 115.155-51.646 115.155-115.154 0-.35-.042-.718-.067-1.067-.05-.85-.107-1.7-.125-2.566l-.433-17.41 17.435-.067c42.2-.117 76.528-34.553 76.528-76.754 0-42.082-34.263-76.518-76.37-76.735zm-162.428 59.693c-32.92 0-59.71 26.773-59.71 59.71 0 32.92 26.79 59.71 59.71 59.71V226.74l64.2 37.07-64.2 37.085v-25.59c-42.4 0-76.77-34.37-76.77-76.77s34.37-76.77 76.77-76.77c42.392 0 76.77 34.37 76.77 76.77h-17.06c0-32.937-26.79-59.71-59.71-59.71z"/><glyph unicode="" d="M417.825 334.434c-.175.058-.308.19-.49.233l-361.977 85.3c-4.59 1.058-9.188-1.766-10.262-6.347-1.075-4.59 1.766-9.18 6.348-10.263l290.536-68.464H34.666c-13.204 0-23.916-10.704-23.916-23.916V51.72c0-13.203 10.713-23.907 23.916-23.907h378.668c13.212 0 23.916 10.704 23.916 23.907v259.256c0 11.67-8.363 21.358-19.425 23.458zM420.19 51.72c0-3.775-3.073-6.848-6.856-6.848H34.666c-3.782 0-6.856 3.073-6.856 6.847v259.256c0 3.78 3.074 6.856 6.856 6.856h378.668c3.782 0 6.856-3.074 6.856-6.856V51.72zm-255.967 146.7c-7.064 0-12.81-5.73-12.81-12.796 0-7.047 5.747-12.795 12.81-12.795 7.047 0 12.78 5.747 12.78 12.794 0 7.065-5.732 12.795-12.78 12.795zM70.46 185.623c0 7.065-5.748 12.795-12.803 12.795-7.048 0-12.787-5.73-12.787-12.796 0-7.047 5.74-12.795 12.787-12.795 7.055 0 12.803 5.748 12.803 12.794zm200.464 12.795c-7.047 0-12.804-5.73-12.804-12.796 0-7.047 5.757-12.795 12.804-12.795 7.072 0 12.786 5.747 12.786 12.794 0 7.065-5.714 12.795-12.786 12.795zm-153.557-24.882c-7.048 0-12.787-5.73-12.787-12.787 0-7.054 5.74-12.802 12.787-12.802 7.055 0 12.803 5.747 12.803 12.803 0 7.057-5.748 12.788-12.803 12.788zM224 160.034c0 7.056-5.73 12.787-12.795 12.787-7.047 0-12.795-5.73-12.795-12.786 0-7.055 5.748-12.803 12.795-12.803 7.065.002 12.795 5.75 12.795 12.804zm-106.633 63.968c-7.048 0-12.787-5.74-12.787-12.787 0-7.072 5.74-12.803 12.787-12.803 7.055 0 12.803 5.73 12.803 12.803 0 7.047-5.748 12.787-12.803 12.787zm93.838-25.59c7.065 0 12.795 5.73 12.795 12.803 0 7.047-5.73 12.787-12.795 12.787-7.047 0-12.795-5.74-12.795-12.787 0-7.073 5.748-12.803 12.795-12.803zm-136.48-51.414c-7.055 0-12.795-5.73-12.795-12.795 0-7.064 5.74-12.795 12.795-12.795 7.047 0 12.795 5.73 12.795 12.795 0 7.064-5.748 12.795-12.795 12.795zm179.14 0c-7.073 0-12.805-5.73-12.805-12.795 0-7.064 5.73-12.795 12.804-12.795 7.056 0 12.786 5.73 12.786 12.795 0 7.064-5.73 12.795-12.786 12.795zM74.724 249.592c-7.055 0-12.795-5.748-12.795-12.804s5.74-12.786 12.795-12.786c7.047 0 12.795 5.73 12.795 12.786 0 7.055-5.748 12.804-12.795 12.804zm179.14-25.59c7.055 0 12.785 5.73 12.785 12.786 0 7.055-5.73 12.804-12.786 12.804-7.072 0-12.804-5.748-12.804-12.804s5.73-12.786 12.804-12.786zm-145.67-110.89c-7.038 0-12.794-5.73-12.794-12.787 0-7.055 5.757-12.803 12.796-12.803 7.08 0 12.795 5.748 12.795 12.803 0 7.055-5.713 12.787-12.794 12.787zm111.207 0c-7.056 0-12.795-5.73-12.795-12.787 0-7.055 5.74-12.803 12.795-12.803 7.064 0 12.795 5.748 12.795 12.803 0 7.055-5.73 12.787-12.795 12.787zm-110.557 145.01c7.08 0 12.795 5.73 12.795 12.786 0 7.072-5.714 12.804-12.795 12.804-7.038 0-12.795-5.73-12.795-12.804 0-7.056 5.757-12.786 12.795-12.786zm110.557 25.59c-7.056 0-12.795-5.73-12.795-12.804 0-7.056 5.74-12.786 12.795-12.786 7.064 0 12.795 5.73 12.795 12.786 0 7.072-5.73 12.804-12.795 12.804zm-55.186-136.714c-7.056 0-12.804-5.73-12.804-12.795 0-7.047 5.748-12.795 12.804-12.795 7.055 0 12.786 5.748 12.786 12.795 0 7.064-5.73 12.795-12.786 12.795zm0-50.93c-7.056 0-12.804-5.748-12.804-12.804 0-7.055 5.748-12.803 12.804-12.803 7.055 0 12.786 5.75 12.786 12.804 0 7.056-5.73 12.804-12.786 12.804zm0 153.524c-7.056 0-12.804-5.748-12.804-12.804s5.748-12.786 12.804-12.786c7.055 0 12.786 5.73 12.786 12.786 0 7.055-5.73 12.804-12.786 12.804zm0 51.18c-7.056 0-12.804-5.73-12.804-12.787 0-7.055 5.748-12.803 12.804-12.803 7.055 0 12.786 5.748 12.786 12.803 0 7.055-5.73 12.787-12.786 12.787zm196.28-17.06c-14.127 0-25.606-11.454-25.606-25.582 0-14.127 11.48-25.58 25.607-25.58 14.11 0 25.573 11.453 25.573 25.58 0 14.128-11.462 25.582-25.573 25.582zm0-34.104c-4.714 0-8.546 3.824-8.546 8.52 0 4.7 3.833 8.523 8.547 8.523 4.698 0 8.513-3.823 8.513-8.52 0-4.698-3.815-8.522-8.513-8.522zm0-34.136c-14.127 0-25.606-11.454-25.606-25.582 0-14.127 11.48-25.58 25.607-25.58 14.11 0 25.573 11.453 25.573 25.58 0 14.128-11.462 25.582-25.573 25.582zm0-34.104c-4.714 0-8.546 3.824-8.546 8.52 0 4.7 3.833 8.523 8.547 8.523 4.698 0 8.513-3.823 8.513-8.52 0-4.698-3.815-8.522-8.513-8.522z" horiz-adv-x="448"/><glyph unicode="" d="M87.52 283.71c-9.43 0-17.06-7.64-17.06-17.06s7.63-17.06 17.06-17.06c9.413 0 17.06 7.64 17.06 17.06 0 9.42-7.647 17.06-17.06 17.06zm51.18 0c-9.43 0-17.06-7.64-17.06-17.06s7.63-17.06 17.06-17.06c9.413 0 17.06 7.64 17.06 17.06 0 9.42-7.647 17.06-17.06 17.06zm298.55 68.24h-93.83v85.3H104.58v-85.3H10.75c-4.715 0-8.53-3.815-8.53-8.53V87.52c0-4.715 3.815-8.53 8.53-8.53h93.83V10.75h238.84v68.24h93.83c4.714 0 8.53 3.815 8.53 8.53v255.9c0 4.715-3.816 8.53-8.53 8.53zm-315.61 68.24h204.72v-68.24H121.64v68.24zM326.36 27.81H121.64v153.54h204.72V27.81zm102.36 68.24h-85.3v102.36H104.58V96.05h-85.3v238.84h409.44V96.05z" horiz-adv-x="448"/><glyph unicode="" d="M240 224.01L478.84 87.52v272.96L240 224.01zm221.78-107.093L274.386 224.01 461.78 331.082V116.917zM1.16 224.01L240 87.52v272.96L1.16 224.01zm221.78-107.093L35.546 224.01 222.94 331.082V116.917z" horiz-adv-x="480"/><glyph unicode="" d="M196.888 437.25h17.06V232.53h-17.06v204.72zm93.83-34.52v-18.867c62.1-30.63 104.942-94.596 104.942-168.392 0-103.475-84.183-187.66-187.66-187.66-103.476 0-187.66 84.185-187.66 187.66 0 71.74 40.477 134.174 99.778 165.745v19.183C51.038 367.51 3.28 297.08 3.28 215.47 3.28 102.406 94.937 10.75 208 10.75c113.064 0 204.72 91.656 204.72 204.72 0 83.618-50.155 155.48-122.002 187.26z" horiz-adv-x="416"/><glyph unicode="" d="M267.71 364.745v42.65H148.29v-42.65H3.28V40.605h409.44v324.14H267.71zm-102.36 25.59h85.3v-25.59h-85.3v25.59zm-17.06-42.65h247.37v-136.48H267.71v34.12H148.29v-34.12H20.34v136.48h127.95zm102.36-119.42v-51.18h-85.3v51.18h85.3zM20.34 57.665v136.48h127.95v-34.12h119.42v34.12h127.95V57.665H20.34z" horiz-adv-x="416"/><glyph unicode="" d="M224 437.248c-117.787 0-213.25-95.463-213.25-213.25S106.213 10.752 224 10.752c117.788 0 213.25 95.458 213.25 213.246S341.788 437.248 224 437.248zm0-409.436c-108.174 0-196.19 88.012-196.19 196.186 0 108.175 88.016 196.19 196.19 196.19 108.174 0 196.19-88.015 196.19-196.19 0-108.174-88.016-196.186-196.19-196.186zm8.53 324.136h-17.06v-119.42H96.616v-17.06H215.47V96.614h17.06v118.854h119.42v17.06H232.53z" horiz-adv-x="448"/><glyph unicode="" d="M23.52 373.425L279.678 224 23.52 74.576v298.85zM6.46 403.13V44.87L313.54 224 6.46 403.13z" horiz-adv-x="320"/><glyph unicode="" d="M129.974-7.426L108.698 92.868 7.614 115.218l20.65 39.592 92.555 5.057c4.748 6.18 15.36 19.742 21.99 26.365l84.335 84.342-175.823 86.208 44.516 44.507 222.913-39.103 78.93 78.928c9.354 9.363 23.93 14.31 42.15 14.31 12.42 0 22.315-2.282 22.73-2.38l4.8-1.125 1.423-4.715c7.497-24.807 2.99-52.77-10.713-66.482l-79.302-79.303 38.95-222.004L373.212 34.9l-85.865 175.115-78.77-78.786c-8.28-8.28-25.963-24.575-32.528-30.59l-6.89-86.807-39.183-21.26zm-96.937 134.49l90.073-19.902 18.81-88.7 10.962 5.95 6.69 84.283 2.48 2.266c.25.226 24.675 22.542 34.454 32.322l95.655 95.67L378.028 63.84l21.35 21.358-38.95 222.02 85.582 85.568c7.43 7.43 11.927 25.564 7.737 44.524-3.45.516-8.413 1.058-13.92 1.058-9.48 0-22.39-1.616-30.088-9.313l-85.193-85.208-222.928 39.1-21.36-21.35 175.824-86.207-101.21-101.22c-7.722-7.713-22.692-27.547-22.842-27.74l-2.39-3.164-90.75-4.964-5.855-11.237z" horiz-adv-x="480"/><glyph unicode="" d="M410.598 343.42v68.24H9.692V104.58h59.71V36.34h400.906v307.08h-59.71zM26.752 121.64V394.6h366.786v-51.18H69.402V121.64h-42.65zM453.248 53.4H86.462v272.96h366.786V53.4z" horiz-adv-x="480"/><glyph unicode="" d="M257.38 454.31H30.62c-12.754 0-23.1-10.355-23.1-23.108V16.79c0-12.77 10.346-23.1 23.1-23.1h226.76c12.755 0 23.1 10.33 23.1 23.1V431.2c0 12.753-10.345 23.108-23.1 23.108zm6.04-437.52c0-3.333-2.707-6.04-6.04-6.04H30.62c-3.333 0-6.04 2.707-6.04 6.04v79.2h238.84v-79.2zm0 96.26H24.58v272.67h238.84V113.05zm0 289.73H24.58v28.422c0 3.332 2.707 6.048 6.04 6.048h226.76c3.334 0 6.04-2.716 6.04-6.048V402.78zM118.41 61.93h51.18V44.87h-51.18v17.06z" horiz-adv-x="288"/><glyph unicode="" d="M476.34 387.17l-68.022 68.015-16.644-16.65-23.29 23.273c-3.333 3.332-8.73 3.332-12.062 0L218.108 323.586c-3.332-3.333-3.332-8.73 0-12.062 1.667-1.666 3.85-2.5 6.032-2.5s4.365.834 6.03 2.5l132.183 132.19 17.26-17.243L86.51 133.378l19.76-19.767c-8.314 4.115-17.377 6.214-26.44 6.214-15.31 0-30.622-5.84-42.3-17.527-1.2-1.183-2.35-2.466-3.45-3.807-.55-.64-1.066-1.308-1.566-1.974-.6-.75-1.166-1.54-1.715-2.333-.418-.583-.834-1.15-1.217-1.732C4.776 55.158 3.66-16.172 3.66-16.172s2.6-.133 7.097-.133c20.492 0 80.152 2.807 111.373 34.02 18.593 18.6 22.34 46.398 11.295 68.748l21.108-21.1L476.34 387.17zM110.068 29.776C91.025 10.742 57.62 4.17 33.797 1.92l38.836 38.835L60.57 52.817 23.368 15.615C26.4 38.372 32.43 65.945 43.844 83.08l.483.682.416.592c.367.533.75 1.082 1.416 1.924.282.374.565.75 1.065 1.35.75.898 1.517 1.765 2.366 2.606 8.08 8.08 18.81 12.53 30.24 12.53 11.41 0 22.157-4.45 30.237-12.53 16.66-16.667 16.66-43.79 0-60.458zm342.15 357.394L351.04 285.992l-43.9 43.89 101.178 101.18 43.9-43.892zM295.08 317.822l43.9-43.89L154.532 89.485l-43.9 43.89L295.08 317.823z" horiz-adv-x="480"/><glyph unicode="" d="M166.064 164.206L242.326 10.75l194.9 426.5-426.45-204.67 155.288-68.374zm4.532 16.628L51.55 233.247l326.94 156.905-207.894-209.318zM241.693 50.15L182.69 168.89l209.744 211.165L241.694 50.15z" horiz-adv-x="448"/><glyph unicode="" d="M399.925 394.6v26.456c0 23.075-18.71 41.784-41.784 41.784H83.466c-23.074 0-41.767-18.71-41.767-41.784V394.6h-7.83c-19.26 0-34.854-15.61-34.854-34.862v-58.385c0-19.25 15.594-34.86 34.853-34.86l160.588.05c9.813 0 17.81-7.99 17.81-17.803v-58.86H178.16V-14.84h85.3v204.72h-34.135v58.86c0 19.25-15.61 34.862-34.87 34.862H173.33v-.05H33.868c-9.813 0-17.793 7.988-17.793 17.8v58.386c0 9.813 7.98 17.802 17.793 17.802h7.83v-26.465C41.7 328 60.393 309.3 83.467 309.3H358.14c23.076 0 41.785 18.7 41.785 41.775v26.465h17.06v17.06h-17.06zM246.4 2.22h-51.18v170.6h51.18V2.22zm136.465 348.855c0-13.628-11.096-24.715-24.724-24.715H83.466c-13.628 0-24.707 11.087-24.707 24.715v69.98c0 13.637 11.08 24.725 24.707 24.725H358.14c13.628 0 24.724-11.088 24.724-24.724v-69.98z" horiz-adv-x="416"/><glyph unicode="" d="M208 428.72H71.52c-40.818 0-68.24-27.422-68.24-68.24V76.75c0-13.478 5.022-57.47 69.705-57.47H412.72v409.44H208zm-17.06-17.06V248.466l-41.784 38.05-46.39-39.033V411.66h88.174zm-119.42 0h14.186V210.83l63 53.013L208 209.856V411.66h187.66V130.17H71.52c-21.71 0-39.318-6.48-51.18-17.81v248.12c0 31.088 20.092 51.18 51.18 51.18zm1.465-375.32c-39.11 0-50.413 17.743-52.304 34.72.034 26.332 19.027 42.05 50.84 42.05h324.14V36.34H72.985z" horiz-adv-x="416"/><glyph unicode="" d="M396.473 412.837c-4.998 4.99-11.554 7.488-18.102 7.488-6.554 0-13.102-2.498-18.092-7.488l-75.295-75.287v14.26H12.023V27.676h324.14V300.63H320.47l76.003 76.014c10.005 9.978 10.005 26.196 0 36.193zm-77.37-368.102H29.083V334.75h253.11l-133.69-133.68v-36.92h35.503l135.097 135.115V44.735zm65.308 343.97L176.943 181.21h-11.38v12.796L372.35 400.783c2.165 2.166 4.697 2.482 6.02 2.482 1.326 0 3.867-.324 6.04-2.498 2.183-2.174 2.508-4.715 2.508-6.04 0-1.316-.324-3.84-2.507-6.023z" horiz-adv-x="416"/><glyph unicode="" d="M1.16 360.48V87.52L240 224.01 1.16 360.48zm17.06-29.397l187.394-107.075L18.22 116.918v214.165zM240 360.48V87.52l238.84 136.49L240 360.48zm17.06-29.397l187.394-107.075-187.394-107.09v214.165z" horiz-adv-x="480"/><glyph unicode="" d="M113.11 437.25V198.41H10.75V58.915c0-34.078 31.72-48.165 55.228-48.165H386.07c25.857 0 51.18 25.15 51.18 51.18v375.32H113.11zM65.978 27.81c-10.62 0-38.168 5.59-38.168 31.105V181.35h85.3V66.27c0-11.42-14.927-38.46-38.46-38.46H65.98zM420.19 61.93c0-16.576-17.534-34.12-34.12-34.12h-273.8c11.486 11.97 17.9 27.69 17.9 38.46v353.92h290.02V61.93zm-255.9 324.14h221.78v-17.06H164.29v17.06zm0-230.31h221.78V138.7H164.29v17.06zm0-59.71h221.78V78.99H164.29v17.06zm221.78 230.31H164.29V198.41h221.78v127.95zm-17.06-110.89H181.35v93.83h187.66v-93.83z" horiz-adv-x="448"/><glyph unicode="" d="M10.75 343.408h221.78v-17.06H10.75v17.06zm0-76.77h221.78v-17.06H10.75v17.06zm0-76.77h221.78v-17.06H10.75v17.06zm307.08 143.344l119.42-15.394c0 85.3-68.24 102.36-136.48 119.445V113.098h-52.563c-50.138 0-66.857-26.53-66.857-50.764 0-20.558 15.386-51.596 68.24-51.596 75.57 0 68.24 60.676 68.24 102.36v220.114zm100.827 4.207L317.83 350.412v64.81c56.695-15.354 93.106-32.214 100.827-77.804zM288.275 39.534c-7.68-7.79-20.7-11.737-38.685-11.737-48.714 0-51.18 28.773-51.18 34.536 0 21.417 18.152 33.704 49.797 33.704h52.563V82.935h.042c-.51-17.186-2.95-33.687-12.537-43.4z" horiz-adv-x="448"/><glyph unicode="" d="M412.72 456.72l-281.49-99.577v-246.68c-13.303 15.787-33.195 25.84-55.445 25.84-40.035 0-72.505-32.47-72.505-72.52 0-40.035 32.47-72.505 72.505-72.505 39.618 0 71.77 31.804 72.438 71.264h.067v282.54l247.37 87.516v-228.31c-13.303 15.785-33.195 25.83-55.454 25.83-40.042 0-72.496-32.454-72.496-72.505 0-40.042 32.454-72.505 72.496-72.505s72.514 32.463 72.514 72.505c0 1.374-.133 2.715-.208 4.065h.208V456.72zM75.785 8.34C45.213 8.34 20.34 33.21 20.34 63.783c0 30.58 24.873 55.46 55.445 55.46s55.445-24.88 55.445-55.46c0-30.572-24.873-55.445-55.445-55.445zm264.42 93.83c-30.57 0-55.435 24.872-55.435 55.444s24.865 55.445 55.436 55.445c30.58 0 55.454-24.874 55.454-55.446s-24.873-55.445-55.454-55.445z" horiz-adv-x="416"/><glyph unicode="" d="M136.53 343.004v26.356c0 7.79 16.46 18.093 29.688 26.382 18.95 11.862 38.552 24.14 38.552 42.026V479.9h-17.06v-42.133c0-8.44-16.935-19.042-30.547-27.572-18.534-11.596-37.693-23.6-37.693-40.835v-26.356C52.804 338.722.05 284.994.05 219.177V92.344C.05 23.73 57.336-31.9 128-31.9c70.663 0 127.95 55.628 127.95 124.244v126.833c0 65.816-52.755 119.545-119.42 123.827zm102.36-123.827V206.94H136.53v119.004c57.16-4.24 102.36-50.448 102.36-106.767zm-221.78 0c0 56.32 45.2 102.526 102.36 106.767V206.94H17.11v12.237zM128-14.84c-61.143 0-110.89 48.08-110.89 107.184v97.536h221.78V92.344C238.89 33.24 189.142-14.84 128-14.84z" horiz-adv-x="256"/><glyph unicode="" d="M51.28 275.18C23.008 275.18.1 252.264.1 224s22.908-51.18 51.18-51.18c28.255 0 51.18 22.916 51.18 51.18s-22.925 51.18-51.18 51.18zm0-85.3c-18.826 0-34.12 15.302-34.12 34.12 0 18.817 15.294 34.12 34.12 34.12 18.81 0 34.12-15.303 34.12-34.12 0-18.818-15.31-34.12-34.12-34.12zm409.44 85.3c-28.272 0-51.18-22.916-51.18-51.18s22.908-51.18 51.18-51.18c28.255 0 51.18 22.916 51.18 51.18s-22.925 51.18-51.18 51.18zm0-85.3c-18.81 0-34.12 15.302-34.12 34.12 0 18.817 15.31 34.12 34.12 34.12 18.81 0 34.12-15.303 34.12-34.12 0-18.818-15.31-34.12-34.12-34.12zM256 275.18c-28.272 0-51.18-22.916-51.18-51.18s22.908-51.18 51.18-51.18c28.255 0 51.18 22.916 51.18 51.18s-22.925 51.18-51.18 51.18zm0-85.3c-18.81 0-34.12 15.302-34.12 34.12 0 18.817 15.31 34.12 34.12 34.12 18.81 0 34.12-15.303 34.12-34.12 0-18.818-15.31-34.12-34.12-34.12z"/><glyph unicode="" d="M126.105 399.17c-13.545-27.474-20.717-57.82-20.717-89.024 0-111.63 90.822-202.446 202.454-202.446 32.838 0 64.567 7.83 92.99 22.59-34.396-61.9-99.97-101.917-173.8-101.917-109.848 0-199.222 89.365-199.222 199.214 0 71.854 38.552 136.52 98.295 171.582zm46.54 37.517C79.573 412.547 10.75 328.213 10.75 227.587c0-119.438 96.846-216.275 216.282-216.275 102.194 0 187.61 70.964 210.218 166.218-33.395-32.62-79.02-52.77-129.408-52.77-102.385 0-185.394 83-185.394 185.385 0 48.982 19.143 93.406 50.197 126.542z" horiz-adv-x="448"/><glyph unicode="" d="M445.78 113.11v307.08H2.22V113.11h213.25V44.87h-59.71V27.81h136.48v17.06h-59.71v68.24h213.25zM19.28 403.13h409.44V130.17H19.28v272.96z" horiz-adv-x="448"/><glyph unicode="" d="M160.042 121.97c51.69 0 93.61 41.91 93.61 93.61V385.8c0 51.7-41.92 93.602-93.61 93.602s-93.61-41.902-93.61-93.602V215.582c0-51.7 41.918-93.61 93.61-93.61zM83.452 385.8c0 42.227 34.356 76.582 76.59 76.582s76.59-34.356 76.59-76.582V215.582c0-42.234-34.356-76.59-76.59-76.59s-76.59 34.356-76.59 76.59v170.216zM287.65 300.69v-85.11c0-70.38-57.26-127.65-127.65-127.65S32.35 145.2 32.35 215.58v85.11H15.33v-85.11c0-77.28 60.958-140.414 137.29-144.295h-1.088V-14.38H74.9V-31.4h170.2v17.02h-76.548v85.665h-1.172c76.333 3.88 137.29 67.016 137.29 144.296v85.11h-17.02z" horiz-adv-x="320"/><glyph unicode="" d="M3.28 369.01v-68.24h409.44v68.24H3.28zm392.38-51.18H20.34v34.12h375.32v-34.12zM3.28 189.88h409.44v68.24H3.28v-68.24zm17.06 51.18h375.32v-34.12H20.34v34.12zM3.28 78.99h409.44v68.24H3.28V78.99zm17.06 51.18h375.32V96.05H20.34v34.12z" horiz-adv-x="416"/><glyph unicode="" d="M336.872 425.596l-10.512 5.256-8.53-4.256v-.01L224 379.674l-102.36 51.18-110.89-55.445V17.148l110.89 55.445L224 21.413l102.36 51.18 110.89-55.445v358.26l-100.378 50.188zM113.11 87.404l-85.3-42.65v320.108l85.3 42.65V87.404zm102.36-42.65l-85.3 42.65v320.108l85.3-42.65V44.754zm102.36 42.65l-85.3-42.65v320.108l85.3 42.65V87.404zm102.36-42.65l-85.3 42.65v320.108l85.3-42.65V44.754z" horiz-adv-x="448"/><glyph unicode="" d="M176.01 462.848c84.658 0 153.53-68.88 153.53-153.548 0-26.923-7.13-53.463-20.633-76.78L176 2.22 43.077 232.538c-13.487 23.3-20.617 49.84-20.617 76.762 0 84.667 68.88 153.548 153.55 153.548zm0-213.25c32.92 0 59.7 26.782 59.7 59.702 0 32.91-26.78 59.693-59.7 59.693-32.93 0-59.72-26.782-59.72-59.693 0-32.92 26.79-59.702 59.72-59.702zm0 230.31C81.786 479.908 5.4 403.505 5.4 309.3c0-31.113 8.37-60.194 22.916-85.31L176-31.907l147.684 255.9c14.545 25.115 22.916 54.195 22.916 85.31 0 94.203-76.387 170.606-170.59 170.606zm0-213.25c-23.558 0-42.66 19.084-42.66 42.642 0 23.532 19.1 42.633 42.66 42.633 23.548 0 42.64-19.1 42.64-42.633 0-23.558-19.093-42.642-42.64-42.642z" horiz-adv-x="352"/><glyph unicode="" d="M419.898 360.482H10.75V87.52h426.5V360.48h-17.352zm-17.06-17.06l-164.77-164.77c-7.512-7.512-20.625-7.512-28.138 0L45.136 343.423h357.702zM27.81 336.625l110.773-110.757L27.81 115.095v221.53zm13.61-232.043l109.234 109.216 47.214-47.207c6.972-6.98 16.26-10.83 26.132-10.83s19.16 3.85 26.132 10.83l47.214 47.215L406.57 104.582H41.42zm378.77 10.504L309.417 225.868 420.19 336.65V115.086z" horiz-adv-x="448"/><glyph unicode="" d="M435.66 266.53L250.13 452.056c-6.97 6.98-16.26 10.83-26.13 10.83-9.872 0-19.16-3.85-26.132-10.83L10.75 264.963v-279.85h426.5V264.94l-1.59 1.59zM38.072 268.16L209.93 439.995c7.515 7.514 20.627 7.514 28.14 0L418.01 260.05 295.39 137.43l-45.258 45.265c-6.972 6.98-16.26 10.83-26.132 10.83-9.87 0-19.158-3.85-26.13-10.83l-45.933-45.924L29.31 259.4l8.763 8.762zm101.794-143.444l-1.267-1.283-.016.017L27.81 12.687v224.087l112.057-112.056zM41.42 2.174l9.172 9.17h.026l159.312 159.29c7.514 7.513 20.626 7.513 28.14 0l168.5-168.46H41.42zm378.77 228.71V12.68l-112.74 112.69 112.74 112.74v-7.223z" horiz-adv-x="448"/><glyph unicode="" d="M435.66 266.53L250.13 452.055c-6.972 6.98-16.26 10.83-26.132 10.83s-19.16-3.85-26.132-10.83l-40.45-40.442h-61.36v-61.35l-85.308-85.3v-279.85h426.5v279.824l-1.59 1.59zm-17.653-6.482L351.95 193.99v132.116l66.057-66.058zM209.93 439.995c7.515 7.514 20.627 7.514 28.14 0l28.38-28.38h-84.907l28.388 28.38zm73.58-45.44l51.38-51.39V176.932l-39.502-39.5-45.257 45.265c-6.97 6.98-16.26 10.83-26.13 10.83s-19.16-3.85-26.133-10.83l-45.93-45.924-38.82 38.82v218.964H283.51zM38.072 268.16l57.986 57.978V192.65L29.31 259.4l8.762 8.762zm-10.262-45.09v13.702l112.056-112.056-1.266-1.283-.017.017L27.81 12.687v210.385zM41.42 2.174l9.172 9.17h.025l159.313 159.29c7.514 7.513 20.626 7.513 28.14 0l168.5-168.46H41.42zm378.77 232.068V12.678l-112.74 112.69 112.74 112.74v-3.866zm-255.9 109.132h119.42v-17.06H164.29v17.06zm0-102.36h119.42v-17.06H164.29v17.06zm0 51.18h85.3v-17.06h-85.3v17.06z" horiz-adv-x="448"/><glyph unicode="" d="M277.517 437.25V198.627c0-47.23-38.285-85.517-85.517-85.517-47.25 0-85.517 38.285-85.517 85.517V437.25H4.34V198.41C4.34 94.767 88.357 10.75 192 10.75s187.66 84.017 187.66 187.66v238.84H277.517zm85.083-17.06v-51.18h-68.023v51.18H362.6zm-273.177 0v-51.18H21.4v51.18h68.023zM192 27.81c-94.08 0-170.6 76.528-170.6 170.6v153.54h68.023V198.627C89.423 142.065 135.438 96.05 192 96.05c56.56 0 102.577 46.015 102.577 102.577V351.95H362.6V198.41c0-94.072-76.537-170.6-170.6-170.6z" horiz-adv-x="384"/><glyph unicode="" d="M327.388 306.818L179.146 159.675l12.046-12.094 148.242 147.143zM110.99 130.17c-51.738 0-93.83 42.092-93.83 93.83 0 51.74 42.092 93.83 93.83 93.83 25.057 0 47.79-9.93 64.634-25.982l.008.092.867-.758 33.21-33.062h-30.48v-17.06h59.71v59.71h-17.06v-30.696l-33.337 33.187-.075-.074c-20.01 19.584-47.34 31.704-77.478 31.704C49.847 334.89.1 285.143.1 224c0-61.142 49.747-110.89 110.89-110.89 31.53 0 59.96 13.295 80.177 34.495l-12.054 12.062c-17.118-18.118-41.292-29.497-68.123-29.497zm290.02 204.72c-28.24 0-53.962-10.696-73.554-28.14l12.053-12.053c16.485 14.36 37.968 23.133 61.5 23.133 51.738 0 93.83-42.09 93.83-93.83 0-51.738-42.092-93.83-93.83-93.83-24.966 0-47.623 9.863-64.45 25.815l-.025-.158-56.494 56.286-12.112-12.02 56.562-56.345.1.1c19.918-18.992 46.798-30.738 76.42-30.738 61.143 0 110.89 49.748 110.89 110.89 0 61.143-49.747 110.89-110.89 110.89z"/><glyph unicode="" d="M256 377.538c-93.547 0-166.468-58.552-255.9-153.48C77.153 142.887 141.81 70.46 256 70.46s198.114 91.686 255.9 151.878C452.748 292.855 368.814 377.538 256 377.538zm0-290.016c-101.37 0-162.56 62.87-232.376 136.518C106.692 310.656 172.74 360.478 256 360.478c98.57 0 175.606-71.08 232.925-137.454C432.555 164.247 356.235 87.522 256 87.522zm0 238.828c-56.445 0-102.36-45.916-102.36-102.352S199.555 121.646 256 121.646s102.36 45.915 102.36 102.35S312.445 326.35 256 326.35zm0-187.644c-47.032 0-85.3 38.26-85.3 85.29 0 47.033 38.268 85.293 85.3 85.293s85.3-38.26 85.3-85.293c0-47.03-38.268-85.29-85.3-85.29zm0 145.002c-32.92 0-59.71-26.79-59.71-59.71s26.79-59.71 59.71-59.71 59.71 26.79 59.71 59.71-26.79 59.71-59.71 59.71zm0-102.36c-23.516 0-42.65 19.134-42.65 42.65s19.134 42.65 42.65 42.65 42.65-19.134 42.65-42.65-19.134-42.65-42.65-42.65z"/><glyph unicode="" d="M286.89 232.53v102.36c0 61.234-49.647 110.89-110.874 110.89-61.25 0-110.906-49.656-110.906-110.89V232.53H5.4V2.22h341.2v230.31h-59.71zM82.17 334.89c0 51.738 42.1 93.83 93.846 93.83 51.73 0 93.814-42.092 93.814-93.83V232.53H82.17v102.36zM329.54 19.28H22.46v196.19h307.08V19.28z" horiz-adv-x="352"/><glyph unicode="" d="M8.58 479.9v-51.18l59.71-102.36V-31.9h119.42v358.26l59.71 102.36v51.18H8.58zm17.06-17.06h204.72v-29.505l-2.69-4.615H28.33l-2.69 4.615v29.505zM85.35-14.84v34.195h85.3V-14.84h-85.3zm87.624 349.797l-2.324-3.982V36.415h-85.3v294.56L38.285 411.66h179.43l-44.74-76.703zM128 241.06c-14.128 0-25.59-11.462-25.59-25.59v-34.153c0-14.12 11.462-25.59 25.59-25.59 14.127 0 25.59 11.47 25.59 25.59v34.153c0 14.128-11.463 25.59-25.59 25.59zm8.53-59.743c0-4.706-3.823-8.53-8.53-8.53s-8.53 3.824-8.53 8.53v34.153c0 4.707 3.823 8.53 8.53 8.53s8.53-3.823 8.53-8.53v-34.153z" horiz-adv-x="256"/><glyph unicode="" d="M248.536 147.318c-20.812 0-41.63 7.914-57.473 23.766l12.062 12.06c25.048-25.047 65.787-25.04 90.844 0l107.445 107.45c25.04 25.042 25.04 65.784 0 90.832l-20.01 20c-25.04 25.04-65.79 25.04-90.835 0l-75.824-75.82-12.062 12.062 75.825 75.82c31.686 31.688 83.254 31.704 114.958 0l20.01-20c31.687-31.696 31.687-83.267 0-114.955L306.03 171.085c-15.844-15.845-36.67-23.767-57.494-23.767zM112.01 10.738c-21.708 0-42.125 8.456-57.477 23.808l-20.01 20c-31.687 31.705-31.687 83.268 0 114.956l107.45 107.458c31.688 31.687 83.276 31.687 114.96 0l20.01-20.01-12.063-12.06-20.01 20.008c-25.035 25.04-65.794 25.032-90.834 0L46.586 157.44c-25.032-25.032-25.032-65.783 0-90.832l20.01-20c12.128-12.13 28.263-18.81 45.414-18.81 17.16 0 33.287 6.68 45.416 18.81l71.505 71.505 12.062-12.062-71.505-71.504c-15.343-15.353-35.76-23.807-57.477-23.807z" horiz-adv-x="448"/><glyph unicode="" d="M318.17 398.16c56.337 0 102.02-45.673 102.02-102.018 0-28.938-12.07-55.02-31.43-73.596L224 56.96 56.258 225.53C38.656 243.862 27.81 268.72 27.81 296.14c0 56.345 45.682 102.02 102.02 102.02 42.424 0 78.793-25.916 94.17-62.777 15.377 36.86 51.746 62.776 94.17 62.776zm0 17.06c-37.526 0-71.987-17.426-94.17-46.147-22.183 28.72-56.644 46.148-94.17 46.148-65.66 0-119.08-53.42-119.08-119.078 0-30.854 11.787-60.126 33.204-82.425L224 32.78l176.856 177.73c23.366 22.425 36.394 52.93 36.394 85.633 0 65.657-53.42 119.078-119.08 119.078z" horiz-adv-x="448"/><glyph unicode="" d="M346.6 300.907c0 94.213-76.37 170.6-170.6 170.6S5.4 395.12 5.4 300.907c0-55.487 26.573-104.667 67.607-135.797l-.075-.042c.783-.533 1.59-1.14 2.424-1.79.083-.06.158-.126.233-.184 13.203-10.42 32.17-34.76 32.17-66.89V-23.51h136.48V96.204c0 34.12 19.71 58.603 34.12 68.332l-.042.05c41.426 31.104 68.282 80.527 68.282 136.32zM124.82-6.447v51.47h102.36v-51.47H124.82zM176 283.856c-9.404 0-17.06 7.647-17.06 17.05 0 9.414 7.656 17.07 17.06 17.07s17.06-7.656 17.06-17.07c0-9.403-7.656-17.05-17.06-17.05zm92.072-105.625c-.224-.174-.45-.35-.666-.532-18.876-13.43-40.226-42.342-40.226-81.494v-34.12h-42.65v205.92c14.686 3.807 25.59 17.034 25.59 32.904 0 18.843-15.277 34.13-34.12 34.13s-34.12-15.287-34.12-34.13c0-15.87 10.904-29.097 25.59-32.904V62.084h-42.65v34.12c0 36.736-20.825 66.208-38.51 80.16-.133.118-.3.235-.458.368-.558.433-1.107.85-1.64 1.25-.292.25-.583.49-.89.716-38.678 29.347-60.86 73.89-60.86 122.21 0 84.66 68.88 153.54 153.54 153.54s153.54-68.88 153.54-153.54c-.002-48.64-22.402-93.348-61.47-122.677z" horiz-adv-x="352"/><glyph unicode="" d="M224 437.25c-117.787 0-213.25-95.464-213.25-213.25 0-117.787 95.463-213.25 213.25-213.25S437.25 106.213 437.25 224c0 117.786-95.463 213.25-213.25 213.25zm0-409.44C115.826 27.81 27.81 115.825 27.81 224c0 108.174 88.016 196.19 196.19 196.19 108.174 0 196.19-88.016 196.19-196.19 0-108.175-88.016-196.19-196.19-196.19zM113.677 232.53H334.89v-17.06H113.677v17.06z" horiz-adv-x="448"/><glyph unicode="" d="M62.99 130.166c-28.264 0-51.18-22.907-51.18-51.17s22.916-51.18 51.18-51.18c28.256 0 51.18 22.915 51.18 51.18s-22.924 51.17-51.18 51.17zm0-85.292c-18.817 0-34.12 15.303-34.12 34.12 0 18.81 15.303 34.11 34.12 34.11 18.818 0 34.12-15.3 34.12-34.11 0-18.817-15.302-34.12-34.12-34.12zm0 375.312c-28.264 0-51.18-22.907-51.18-51.17s22.916-51.18 51.18-51.18c28.256 0 51.18 22.915 51.18 51.18s-22.924 51.17-51.18 51.17zm0-85.292c-18.817 0-34.12 15.303-34.12 34.12 0 18.81 15.303 34.11 34.12 34.11 18.818 0 34.12-15.3 34.12-34.11 0-18.817-15.302-34.12-34.12-34.12zm0-59.36c-28.264 0-51.18-22.907-51.18-51.17s22.916-51.18 51.18-51.18c28.256 0 51.18 22.915 51.18 51.18s-22.924 51.17-51.18 51.17zm0-85.29c-18.817 0-34.12 15.31-34.12 34.12s15.303 34.11 34.12 34.11c18.818 0 34.12-15.302 34.12-34.11s-15.302-34.12-34.12-34.12zM208 130.165c-28.264 0-51.18-22.907-51.18-51.17s22.916-51.18 51.18-51.18c28.256 0 51.18 22.915 51.18 51.18s-22.924 51.17-51.18 51.17zm0-85.292c-18.817 0-34.12 15.303-34.12 34.12 0 18.81 15.303 34.11 34.12 34.11 18.818 0 34.12-15.3 34.12-34.11 0-18.817-15.302-34.12-34.12-34.12zm0 375.312c-28.264 0-51.18-22.907-51.18-51.17s22.916-51.18 51.18-51.18c28.256 0 51.18 22.915 51.18 51.18s-22.924 51.17-51.18 51.17zm0-85.292c-18.817 0-34.12 15.303-34.12 34.12 0 18.81 15.303 34.11 34.12 34.11 18.818 0 34.12-15.3 34.12-34.11 0-18.817-15.302-34.12-34.12-34.12zm0-59.36c-28.264 0-51.18-22.907-51.18-51.17s22.916-51.18 51.18-51.18c28.256 0 51.18 22.915 51.18 51.18s-22.924 51.17-51.18 51.17zm0-85.29c-18.817 0-34.12 15.31-34.12 34.12s15.303 34.11 34.12 34.11c18.818 0 34.12-15.302 34.12-34.11s-15.302-34.12-34.12-34.12zm145.01-60.078c-28.264 0-51.18-22.907-51.18-51.17s22.916-51.18 51.18-51.18c28.256 0 51.18 22.915 51.18 51.18s-22.924 51.17-51.18 51.17zm0-85.292c-18.817 0-34.12 15.303-34.12 34.12 0 18.81 15.303 34.11 34.12 34.11 18.818 0 34.12-15.3 34.12-34.11 0-18.817-15.302-34.12-34.12-34.12zm0 272.96c28.256 0 51.18 22.916 51.18 51.18s-22.924 51.17-51.18 51.17c-28.264 0-51.18-22.906-51.18-51.17s22.916-51.18 51.18-51.18zm0 85.292c18.818 0 34.12-15.302 34.12-34.11 0-18.818-15.302-34.12-34.12-34.12-18.817 0-34.12 15.302-34.12 34.12 0 18.808 15.303 34.11 34.12 34.11zm0-127.592c-28.264 0-51.18-22.907-51.18-51.17s22.916-51.18 51.18-51.18c28.256 0 51.18 22.915 51.18 51.18s-22.924 51.17-51.18 51.17zm0-85.29c-18.817 0-34.12 15.31-34.12 34.12s15.303 34.11 34.12 34.11c18.818 0 34.12-15.302 34.12-34.11s-15.302-34.12-34.12-34.12z" horiz-adv-x="416"/><glyph unicode="" d="M287.375 241.377l-12.062 12.06-51.304-51.312-51.315 51.313-12.062-12.06 51.305-51.315-51.472-51.463 12.062-12.062 51.48 51.464 51.47-51.464 12.064 12.062-51.472 51.463zM437.25 368.993H10.75v-17.06h12.537l4.523-34.12c0-13.61 8.022-25.256 19.542-30.738L77.44 111.577c3.15-17.86 14.586-32.57 32.57-32.57h227.98c17.975 0 28.888 14.444 32.57 32.57l30.088 175.498c11.52 5.48 19.542 17.127 19.542 30.738l4.523 34.12h12.537v17.06zm-83.46-254.267c-1.473-7.08-5.463-18.66-15.8-18.66H110.01c-11.61 0-15.002 14.145-15.76 18.394L65.238 283.693h317.526L353.79 114.726zm49.49 205.32l-.15-1.116v-1.117c0-9.413-7.656-17.06-17.06-17.06H61.93c-9.404 0-17.06 7.647-17.06 17.06v1.117l-.15 1.116-4.223 31.888h367.007l-4.224-31.888z" horiz-adv-x="448"/><glyph unicode="" d="M225.066 301.503c14.127 0 25.59 11.463 25.59 25.59 0 14.144-11.463 25.574-25.59 25.574-14.128 0-25.59-11.43-25.59-25.574 0-14.128 11.462-25.59 25.59-25.59zm17.377-34.12v17.06h-51.18v-17.06h17.06v-145.01h-17.06v-17.06h68.24v17.06h-17.06zM224 437.25c-117.77 0-213.25-95.48-213.25-213.25 0-117.787 95.48-213.25 213.25-213.25S437.25 106.213 437.25 224c0 117.77-95.48 213.25-213.25 213.25zm0-409.44C115.817 27.81 27.81 115.826 27.81 224S115.817 420.19 224 420.19c108.183 0 196.19-88.016 196.19-196.19S332.183 27.81 224 27.81z" horiz-adv-x="448"/><glyph unicode="" d="M224 437.25l-85.3-85.3v34.12H70.46V283.71l-60.077-60.077 12.062-12.062L224 413.126 425.555 211.57l12.062 12.062L224 437.25zM87.52 369.01h34.12v-34.12l-34.12-34.12v68.24zM70.46 215.47V10.75h119.42v119.42h68.24V10.75h119.42v204.72L224 369.01 70.46 215.47zM360.48 27.81h-85.3v119.42H172.82V27.81h-85.3v180.595L224 344.885l136.48-136.48V27.81z" horiz-adv-x="448"/><glyph unicode="" d="M208 428.72C94.944 428.72 3.28 337.073 3.28 224 3.28 110.937 94.936 19.29 208 19.28c113.073.01 204.72 91.664 204.72 204.72-.008 113.064-91.656 204.72-204.72 204.72zm-.016-298.55c-51.73 0-93.814 42.092-93.814 93.83 0 51.74 42.092 93.83 93.83 93.83h.017c51.73 0 93.813-42.09 93.813-93.83 0-51.73-42.09-93.82-93.846-93.83zm102.343 136.597l64.45 43.092c13.31-25.75 20.883-54.93 20.883-85.86 0-30.537-7.38-59.368-20.375-84.875l-64.567 43.183c5.232 12.88 8.172 26.932 8.172 41.692 0 15.16-3.057 29.605-8.563 42.767zm55.91 57.902l-63.84-42.684c-9.28 15.078-22.034 27.73-37.194 36.885l42.708 63.86c23.46-14.81 43.4-34.67 58.328-58.06zm-73.187 66.523l-43.166-64.54c-12.92 5.28-27.04 8.237-41.867 8.237H208c-14.828 0-28.94-2.956-41.867-8.238l-43.174 64.55c25.547 13.053 54.435 20.458 85.04 20.458s59.502-7.413 85.05-20.467zm-184.953-8.446l42.717-63.867c-15.194-9.18-27.972-21.867-37.26-36.978l-63.85 42.7c14.936 23.417 34.91 43.308 58.393 58.145zm-66.915-72.963l64.458-43.108c-5.48-13.145-8.53-27.548-8.53-42.676 0-14.72 2.933-28.747 8.138-41.59l-64.583-43.193C27.705 164.7 20.34 193.504 20.34 224c0 30.897 7.556 60.052 20.842 85.784zm7.922-185.445l63.867 42.708c9.223-15.352 22.025-28.256 37.303-37.602l-42.7-63.842C84 80.598 63.99 100.69 49.104 124.34zM122.4 57.09l43.118 64.476c13.086-5.432 27.414-8.456 42.467-8.456H208c15.062 0 29.407 3.032 42.5 8.472L293.62 57.1c-25.69-13.237-54.778-20.76-85.616-20.76-30.83 0-59.912 7.523-85.6 20.75zm186.044 8.522l-42.7 63.85c15.236 9.33 28.014 22.192 37.228 37.502l63.867-42.717c-14.88-23.598-34.863-43.658-58.396-58.635z" horiz-adv-x="416"/><glyph unicode="" d="M224 437.25c-117.78 0-213.25-95.47-213.25-213.25 0-117.77 95.47-213.25 213.25-213.25S437.25 106.23 437.25 224c0 117.78-95.47 213.25-213.25 213.25zm0-409.44C115.817 27.81 27.81 115.817 27.81 224S115.817 420.19 224 420.19 420.19 332.183 420.19 224c0-108.183-88.007-196.19-196.19-196.19zm-.724 307.988c-43.3 0-67.474-26.756-67.782-69.148h18.81c-.592 30.754 15.527 53.32 48.072 53.32 23.283 0 42.692-16.42 42.692-40.3 0-15.528-8.364-28.065-19.41-38.52-22.682-21.058-29.046-30.954-30.188-59.8h19.05c1.126 26.156.543 25.63 23.376 48.456 15.227 14.328 25.973 28.672 25.973 50.764 0 34.628-27.466 55.228-60.594 55.228zM224 147.22c-9.413 0-17.06-7.638-17.06-17.05 0-9.43 7.647-17.06 17.06-17.06 9.42 0 17.06 7.63 17.06 17.06 0 9.413-7.64 17.05-17.06 17.05z" horiz-adv-x="448"/><glyph unicode="" d="M420.19 249.59V44.87h-85.3v375.32h-17.06V44.87h-85.3v255.9h-17.06V44.87h-85.3v102.36h-17.06V44.87H27.885v153.54h-17.06V44.87h-.075V27.81h426.5v221.78z" horiz-adv-x="448"/><glyph unicode="" d="M3.28 428.72V19.28h409.44v409.44H3.28zm392.38-17.06v-73.497L283.296 176.06l-77.037 60.877-85.7-119.986-50.597 33.73L20.34 92.833V411.66h375.32zM20.34 36.34v30.296l52.738 61.468 51.763-34.512 84.9 118.854 77.238-61.026L395.66 308.217V36.34H20.34z" horiz-adv-x="416"/><glyph unicode="" d="M431.925 462.84c-23.516 0-42.65-19.126-42.65-42.634 0-14.82 7.614-27.88 19.118-35.527L327.75 172.127c-2.233.367-4.482.692-6.806.692-10.22 0-19.484-3.765-26.84-9.78l-80.693 66.65c3.183 5.97 5.157 12.677 5.157 19.9 0 23.515-19.134 42.65-42.65 42.65-23.515 0-42.65-19.136-42.65-42.65 0-12.705 5.698-24.01 14.544-31.83L61.83 67.993c-4.34 1.49-8.904 2.474-13.744 2.474-23.524 0-42.66-19.126-42.66-42.633 0-23.533 19.135-42.675 42.66-42.675 23.516 0 42.64 19.142 42.64 42.675 0 12.537-5.538 23.707-14.184 31.52l86.075 149.926c4.215-1.4 8.63-2.34 13.303-2.34 10.122 0 19.3 3.69 26.623 9.596l80.778-66.716c-3.1-5.915-5.023-12.53-5.023-19.65 0-23.517 19.135-42.65 42.65-42.65 23.516 0 42.65 19.133 42.65 42.65 0 15.135-7.98 28.363-19.892 35.943l80.518 212.2c2.51-.457 5.066-.774 7.706-.774 23.516 0 42.65 19.14 42.65 42.665 0 23.51-19.135 42.635-42.65 42.635zM48.085 2.22c-14.112 0-25.6 11.487-25.6 25.615 0 14.103 11.487 25.573 25.6 25.573 14.102 0 25.58-11.47 25.58-25.573 0-14.128-11.48-25.615-25.58-25.615zM175.916 224c-14.11 0-25.59 11.48-25.59 25.59s11.48 25.59 25.59 25.59 25.59-11.48 25.59-25.59-11.48-25.59-25.59-25.59zm145.027-119.42c-14.11 0-25.59 11.48-25.59 25.59s11.48 25.59 25.59 25.59 25.59-11.48 25.59-25.59-11.48-25.59-25.59-25.59zm110.98 290.02c-14.11 0-25.59 11.486-25.59 25.606 0 14.103 11.48 25.574 25.59 25.574s25.59-11.47 25.59-25.574c0-14.12-11.478-25.606-25.59-25.606z" horiz-adv-x="480"/><glyph unicode="" d="M437.254 224c0 114.897-90.915 208.552-204.728 213.033v.217h-17.06v-.217C101.652 432.553 10.746 338.897 10.746 224c0-117.787 95.48-213.25 213.25-213.25 41.37 0 79.956 11.82 112.664 32.203l.117-.166 6.347 4.315c.084.05.15.09.217.142l7.548 5.123-.116.166c52.462 38.843 86.482 101.17 86.482 171.467zm-33.77 79.094l-170.958-66.616v183.495c76.39-3.29 141.57-50.455 170.958-116.88zM223.996 27.81c-108.183 0-196.19 88.007-196.19 196.19 0 105.316 83.425 191.483 187.66 195.973V221.375L327.03 57.132C297.056 38.564 261.77 27.81 223.997 27.81zm117.146 38.9L237.066 219.944 409.68 287.2c6.78-19.842 10.513-41.084 10.513-63.2 0-64.31-31.103-121.486-79.05-157.29z" horiz-adv-x="448"/><glyph unicode="" d="M224 437.25h-.266c-.084 0-.167-.017-.25-.017C105.938 436.967 10.75 341.603 10.75 224c0-117.57 95.188-212.95 212.734-213.234.083 0 .166-.016.25-.016H224c117.754 0 213.25 95.496 213.25 213.25 0 117.77-95.496 213.25-213.25 213.25zm8.53-127.617c22.608.617 44.608 3.6 65.79 8.764 6.39-25.14 10.347-54.113 10.97-85.866h-76.76v77.103zm0 17.06v92.148c23-6.363 46.29-37.018 61.143-84.033-19.7-4.75-40.143-7.515-61.143-8.114zm-17.06 92.347v-92.347c-21.175.6-41.783 3.415-61.634 8.247 14.97 47.297 38.484 78.07 61.634 84.1zm0-109.39v-77.12h-77.295c.624 31.804 4.598 60.81 10.988 85.966 21.35-5.214 43.516-8.247 66.307-8.846zm-94.463-77.12h-92.98c1.883 43.85 18.218 84.033 44.374 115.854 18.994-10.463 39.144-19.026 60.253-25.424-6.89-27.205-11.022-57.876-11.646-90.43zm0-17.06c.624-32.538 4.756-63.21 11.645-90.415-21.1-6.414-41.26-14.977-60.252-25.44-26.156 31.82-42.49 72.005-44.373 115.855h92.98zm17.168 0h77.295v-77.02c-22.79-.6-44.966-3.65-66.316-8.88-6.39 25.14-10.354 54.128-10.98 85.9zm77.295-94.064V28.96c-23.166 6.047-46.698 36.85-61.66 84.2 19.86 4.83 40.477 7.647 61.66 8.246zm17.06-92.247v92.246c21.01-.6 41.45-3.382 61.16-8.13-14.845-47.048-38.152-77.752-61.16-84.117zm0 109.29v77.02h76.76c-.623-31.72-4.58-60.66-10.945-85.784-21.2 5.165-43.2 8.164-65.815 8.764zm93.93 77.02h93.514c-1.883-43.85-18.21-84.018-44.366-115.838-19.15 10.53-39.467 19.16-60.76 25.59 6.873 27.172 10.987 57.777 11.612 90.248zm0 17.06c-.624 32.52-4.748 63.142-11.63 90.33 21.277 6.432 41.593 15.045 60.728 25.574 26.18-31.82 42.525-72.02 44.416-115.904H326.46zm37.344 128.933c-16.97-9.03-34.887-16.494-53.596-22.158-9.972 32.088-23.974 58.278-40.526 75.47 36.32-8.713 68.748-27.506 94.122-53.312zm-186.16 53.146c-16.47-17.162-30.405-43.234-40.344-75.155-18.525 5.648-36.286 13.045-53.104 22.008 25.207 25.64 57.395 44.382 93.447 53.146zM84.137 86.602c16.836 8.98 34.604 16.378 53.146 22.025 9.937-31.954 23.874-58.06 40.36-75.237-36.08 8.78-68.282 27.54-93.506 53.213zM269.674 33.24c16.577 17.194 30.58 43.4 40.56 75.538 18.716-5.68 36.643-13.128 53.62-22.19-25.374-25.825-57.828-44.65-94.18-53.347z" horiz-adv-x="448"/><glyph unicode="" d="M203.616 419.624L181.608 241.06h97.41L116.385 28.376l22.01 178.563H40.98l162.636 212.684zM228.24 479.9L6.46 189.88H119.1L91.76-31.9l221.78 290.02H200.9l27.34 221.78z" horiz-adv-x="320"/><glyph unicode="" d="M499.105 236.786h-5.107c-6.322 52.847-51.238 93.83-105.783 93.83-50.68 0-93.014-35.386-103.85-82.776l-24.417 12.754c-2.465 1.282-5.43 1.282-7.896 0l-24.415-12.754c-10.837 47.4-53.17 82.785-103.85 82.785-54.555 0-99.454-40.984-105.785-93.83h-5.106C5.83 236.795.1 231.065.1 223.99c0-7.054 5.73-12.785 12.796-12.785h5.106c6.33-52.846 51.23-93.83 105.784-93.83 58.885 0 106.625 47.73 106.625 106.625 0 1.982-.19 3.924-.3 5.88L256 243.41l25.89-13.53c-.11-1.957-.3-3.898-.3-5.88 0-58.885 47.74-106.625 106.625-106.625 54.545 0 99.444 40.984 105.783 93.82h5.107c7.064 0 12.795 5.732 12.795 12.796 0 7.066-5.73 12.796-12.795 12.796zm-375.32-102.35c-49.39 0-89.565 40.175-89.565 89.564 0 49.39 40.175 89.565 89.565 89.565S213.35 273.39 213.35 224s-40.176-89.565-89.565-89.565zm264.43 0c-49.39 0-89.565 40.175-89.565 89.564 0 49.38 40.175 89.556 89.565 89.556S477.78 273.38 477.78 224c0-49.39-40.176-89.565-89.565-89.565z"/><glyph unicode="" d="M312.7 326.368c14.22 12.512 23.25 30.788 23.25 51.164 0 37.627-30.613 68.24-68.24 68.24-25.673 0-48.064-14.27-59.71-35.278-11.645 21.01-34.037 35.278-59.71 35.278-37.627 0-68.24-30.613-68.24-68.24 0-20.376 9.03-38.652 23.25-51.164H3.28V2.228h409.44v324.14H312.7zm82.96-17.06v-136.48H216.53v136.48h10.896l41.41-72.472 14.81 8.463-36.578 64.007H395.66zM208 343.295l9.67-16.927H198.33L208 343.295zm59.71 85.417c28.222 0 51.18-22.958 51.18-51.18 0-28.214-22.958-51.164-51.18-51.164-28.223 0-51.18 22.95-51.18 51.164 0 28.222 22.957 51.18 51.18 51.18zm-170.6-51.18c0 28.222 22.957 51.18 51.18 51.18 28.222 0 51.18-22.958 51.18-51.18 0-28.214-22.958-51.164-51.18-51.164-28.223 0-51.18 22.95-51.18 51.164zm71.822-68.224L132.355 245.3l14.81-8.463 41.41 72.472h10.896V172.83H20.34v136.48h148.592zM20.34 155.768h179.13V19.288H20.34v136.48zm196.19-136.48v136.48h179.13V19.288H216.53z" horiz-adv-x="416"/><glyph unicode="" d="M378.6 356.215H156.82v8.53c0 18.843-15.277 34.12-34.12 34.12H37.4c-18.843 0-34.12-15.277-34.12-34.12V83.255c0-18.842 15.277-34.12 34.12-34.12h341.2c18.843 0 34.12 15.278 34.12 34.12v238.84c0 18.843-15.277 34.12-34.12 34.12zm-358.26 8.53c0 9.405 7.656 17.06 17.06 17.06h85.3c9.404 0 17.06-7.655 17.06-17.06v-25.59H378.6c9.404 0 17.06-7.655 17.06-17.06v-17.06H20.34v59.71zM378.6 66.195H37.4c-9.404 0-17.06 7.656-17.06 17.06v204.72h375.32V83.255c0-9.404-7.656-17.06-17.06-17.06z" horiz-adv-x="416"/><glyph unicode="" d="M313.53 406.372l-11.345-3.956c-.3-.1-31.03-10.63-79.618-10.63-24.757 0-48.332 5.023-71.122 9.88-23.05 4.914-46.89 9.995-72.13 9.995-50.33 0-67.4-10.803-69.182-12.036l-3.674-2.54V36.337h17.06V199.47c6.788 2.65 23.432 7.372 55.794 7.372 23.44 0 45.366-4.673 68.574-9.62 23.657-5.05 48.123-10.263 74.68-10.263 51.728 0 83.924 11.11 85.273 11.586l5.7 2.007-.01 205.82zm-17.05-193.424c-11.037-3.007-37.443-8.93-73.912-8.93-24.757 0-48.332 5.023-71.122 9.89-23.05 4.913-46.89 9.994-72.13 9.994-27.63 0-45.242-3.257-55.796-6.406v169.75c6.83 2.65 23.516 7.355 55.795 7.355 23.44 0 45.366-4.672 68.574-9.62 23.656-5.04 48.122-10.254 74.678-10.254 34.36 0 60.102 4.906 73.912 8.338V212.948z" horiz-adv-x="320"/><glyph unicode="" d="M275.18 27.81H172.728v166.36L2.153 420.19h443.693L275.18 194.17V27.81zm-85.392 17.06h68.332v155.015L411.593 403.13H36.407l153.38-203.245V44.87z" horiz-adv-x="448"/><glyph unicode="" d="M309.208 283.777L164.265 428.72H10.725V19.28h298.55v264.47l-.067.027zM164.265 404.595L276.62 292.24H164.266v112.355zM27.785 36.34v375.32h119.42V275.18h145.01V36.34H27.785z" horiz-adv-x="320"/><glyph unicode="" d="M131.23 411.66v17.06H3.28V300.77h17.06v98.83l121.41-121.412 12.063 12.06L32.403 411.66zm153.54 17.06v-17.06h98.828l-121.41-121.41 12.06-12.062 121.412 121.41V300.77h17.06v127.95zM141.75 169.813L20.34 48.403v98.827H3.28V19.28h127.95v17.06H32.402l121.41 121.41zm253.91-121.41l-121.41 121.41-12.063-12.062 121.41-121.41H284.77V19.28h127.95v127.95h-17.06z" horiz-adv-x="416"/><glyph unicode="" d="M3.28 19.28h170.6v170.617H3.28V19.28zm17.06 153.557h136.48V36.34H20.34v136.497zM327.42 224h17.06v136.48H208v-17.06h108.19L190.116 217.345l12.062-12.062L327.42 330.525zM3.28 428.72V224h17.06v187.66h375.32V36.34H208V19.28h204.72v409.44z" horiz-adv-x="416"/><glyph unicode="" d="M404.19 386.078c0 23.558-19.1 42.642-42.65 42.642-23.557 0-42.65-19.084-42.65-42.642 0-20.625 14.653-37.835 34.12-41.792V53.4h17.06v290.886c19.467 3.957 34.12 21.167 34.12 41.792zm-42.65-25.59c-14.11 0-25.59 11.48-25.59 25.59 0 14.104 11.48 25.582 25.59 25.582s25.59-11.48 25.59-25.582c0-14.112-11.48-25.59-25.59-25.59zM62.99 103.722V394.6H45.93V103.722c-19.467-3.957-34.12-21.16-34.12-41.792 0-23.55 19.1-42.65 42.65-42.65 23.55 0 42.65 19.1 42.65 42.65 0 20.633-14.653 37.835-34.12 41.792zM54.46 36.34c-14.11 0-25.59 11.48-25.59 25.59s11.48 25.59 25.59 25.59 25.59-11.48 25.59-25.59-11.48-25.59-25.59-25.59zm162.07 229.452V394.6h-17.06V265.792c-19.467-3.957-34.12-21.167-34.12-41.792 0-20.626 14.653-37.836 34.12-41.793V53.4h17.06v128.807c19.467 3.957 34.12 21.167 34.12 41.793 0 20.625-14.653 37.835-34.12 41.792zM208 198.41c-14.11 0-25.59 11.48-25.59 25.59s11.48 25.59 25.59 25.59 25.59-11.48 25.59-25.59-11.48-25.59-25.59-25.59z" horiz-adv-x="416"/><glyph unicode="" d="M317.428 226.362c-.34 1.324-1 2.524-1.883 3.524L176 462.62l-19.934-33.238h.025L35.69 228.61c-.3-.5-.54-1.016-.725-1.55-13.76-24.323-21.033-51.812-21.033-79.61 0-89.364 72.705-162.07 162.08-162.07 89.364 0 162.06 72.706 162.06 162.07 0 27.532-7.13 54.754-20.642 78.912zM176.008 2.442C96.05 2.44 30.99 67.49 30.99 147.45c0 25.34 6.764 50.412 19.56 72.495.24.41.432.833.6 1.267L176 429.416 300.835 221.24c.167-.443.374-.876.617-1.292 12.795-22.083 19.558-47.156 19.558-72.496 0-79.96-65.05-145.01-145-145.01z" horiz-adv-x="352"/><glyph unicode="" d="M344.086 369.01H104.58L10.75 266.65V78.99h426.5v187.66l-93.164 102.36zm-232-17.06h224.462l77.637-85.3H283.71c0-31.946-27.764-57.752-59.71-57.752s-59.71 25.807-59.71 57.752H33.9l78.186 85.3zM420.19 96.05H27.81v153.54h121.528c8.163-32.654 39.05-57.752 74.662-57.752s66.5 25.1 74.662 57.752H420.19V96.05z" horiz-adv-x="448"/><glyph unicode="" d="M101.362 266.966L89.3 254.904l86.7-86.7 86.7 86.7-12.062 12.062-66.108-66.108v270.036h-17.06V200.858zM218.65 385.594v-17.06h110.89V78.514H22.46v290.02h110.89v17.06H5.4V61.454h341.2v324.14z" horiz-adv-x="352"/><glyph unicode="" d="M470.31 415.925H9.69v-17.06h34.12V91.785h187.66v-42.65H94.99v-17.06h290.02v17.06H248.53v42.65h187.66v307.08h34.12v17.06zm-51.18-307.08H60.87v290.02h358.26v-290.02zm-204.72 238.84H112.05v-102.36h102.36v102.36zm-17.06-85.3h-68.24v68.24h68.24v-68.24zm51.18 0h119.42v-17.06H248.53v17.06zm0 85.3h119.42v-17.06H248.53v17.06zm0-42.65h119.42v-17.06H248.53v17.06zm-136.48-93.83h255.9v-17.06h-255.9v17.06zm0-51.18h255.9v-17.06h-255.9v17.06z" horiz-adv-x="480"/><glyph unicode="" d="M445.78 116.825v307.08H2.22v-307.08h213.25V83.83l-80.9-44.808 8.262-14.927L224 69.06l81.17-44.965 8.262 14.927L232.53 83.83v32.995h213.25zm-426.5 290.02h409.44v-272.96H19.28v272.96zM212.705 233.17l-50.59 70.557-33.852-65.64-53.23 107.407-38.86-143.435 16.46-4.467 27.098 100.003 48.232-97.312 36.536 70.84 54.62-76.17 47.174 158.27-16.344 4.882zm130.724 88.375c-28.223 0-51.19-22.958-51.19-51.18s22.966-51.18 51.19-51.18c28.213 0 51.17 22.958 51.17 51.18s-22.958 51.18-51.17 51.18zm0-85.3c-18.82 0-34.13 15.302-34.13 34.12s15.31 34.12 34.13 34.12c18.81 0 34.11-15.302 34.11-34.12s-15.302-34.12-34.11-34.12z" horiz-adv-x="448"/><glyph unicode="" d="M327.42 428.72H3.28V19.28h409.44v324.14l-85.3 85.3zm-34.12-17.06V292.24H122.7v119.42h170.6zM395.66 36.34H20.34v375.32h85.3V275.18h204.72v136.48h9.996l75.304-75.304V36.34zm-153.206 341.2h17.06v-51.18h-17.06v51.18zM122.7 155.76h170.6V138.7H122.7v17.06zm0-51.18h170.6V87.52H122.7v17.06z" horiz-adv-x="416"/><glyph unicode="" d="M3.28 428.72V19.28h409.44v409.44H3.28zm392.38-17.06v-76.77H20.34v76.77h375.32zM20.34 36.34v281.49h375.32V36.34H20.34zm110.882 349.73h25.598v-25.59h-25.598v25.59zm127.958 0h25.59v-25.59h-25.59v25.59zM149.564 257.136c-3.057-20.76-12.928-21.117-32.795-21.833l-3.083-.117v-14.47h33.662v-94.62h17.858v133.773h-15.244l-.4-2.734zm100.703-40.208c-7.93 0-16.077-2.59-22.533-6.93l6.073 31.278h56.237v16.953h-69.548l-13.57-72.448h15.435l.943 1.474c5.398 8.405 15.235 13.628 25.69 13.628 17.018 0 29.372-12.587 29.372-29.922 0-15.677-9.84-31.554-28.64-31.554-16.068 0-27.62 10.845-28.096 26.38l-.1 3.1h-17.844l.075-3.274c.575-25.274 18.677-42.25 45.05-42.25 26.59 0 47.415 20.35 47.415 46.324 0 28.255-18.468 47.24-45.958 47.24z" horiz-adv-x="416"/><glyph unicode="" d="M436.19 437.208c-.624 0-1.2-.15-1.816-.183H385.01v.183l-339.384-.183c-.617.033-1.192.183-1.816.183-18.843 0-34.12-15.277-34.12-34.12 0-9.48 3.873-18.043 10.112-24.223l75.188-75.188v5.573c0-77.203 60.385-140.145 136.48-144.577V27.853h-68.24v-17.06h153.54v17.06h-68.24v136.82c76.095 4.43 136.48 67.373 136.48 144.577v-5.573l75.187 75.188c6.24 6.18 10.113 14.744 10.113 24.223 0 18.843-15.277 34.12-34.12 34.12zM94.99 327.8l-63.183 63.185c-3.258 3.232-5.057 7.53-5.057 12.103 0 9.17 7.272 16.677 16.36 17.043.526-.066 1.05-.115 1.592-.14l.467-.026h49.82V327.8zm272.96-18.55c0-70.556-57.403-127.95-127.95-127.95s-127.95 57.394-127.95 127.95v110.898h255.9V309.25zm80.243 81.735L385.01 327.8v92.165l50.29.025c.54.026 1.065.075 1.59.142 9.09-.366 16.36-7.87 16.36-17.043 0-4.575-1.8-8.873-5.057-12.105z" horiz-adv-x="480"/><glyph unicode="" d="M431.923 287.267h68.123l-247.31 146.426L11.953 287.267h61.71v-255.9h-34.12v-17.06h426.5v17.06h-34.12v255.9zm-359.076 17.06L252.85 413.8l184.904-109.473H72.847zm17.876-272.96v255.9h51.18v-255.9h-51.18zm68.24 0v255.9h51.18v-255.9h-51.18zm68.24 0v255.9h51.18v-255.9h-51.18zm68.24 0v255.9h51.18v-255.9h-51.18zm68.24 0v255.9h51.18v-255.9h-51.18z"/><glyph unicode="" d="M369.01 87.587V364.52l31.055 30.946-12.045 12.078-30.105-30.004H79.09v51.18H62.03v-51.18H10.75v-17.06h51.28V70.527h289.92V19.28h17.06v51.247h68.24v17.06h-68.24zM340.805 360.48L79.09 99.606V360.48h261.715zM91.203 87.587L351.95 347.51V87.585H91.203z" horiz-adv-x="448"/><glyph unicode="" d="M444.72 377.54H35.28c-14.127 0-25.59-11.463-25.59-25.59V96.05c0-14.144 11.463-25.59 25.59-25.59h409.44c14.128 0 25.59 11.446 25.59 25.59v255.9c0 14.127-11.462 25.59-25.59 25.59zM26.75 309.3h426.5v-34.12H26.75v34.12zm426.5-213.25c0-4.707-3.823-8.53-8.53-8.53H35.28c-4.706 0-8.53 3.823-8.53 8.53v162.07h426.5V96.05zM26.75 326.36v25.59c0 4.706 3.824 8.53 8.53 8.53h409.44c4.707 0 8.53-3.824 8.53-8.53v-25.59H26.75zM60.87 138.7h170.6v-17.06H60.87v17.06zm0 51.18h102.36v-17.06H60.87v17.06zm306.83-68.24h34.637c9.27 0 16.793 7.397 16.793 16.543v1.024c0 9.138-7.522 16.552-16.793 16.552H367.7c-9.287 0-16.81-7.415-16.81-16.553v-1.024c0-9.146 7.523-16.543 16.81-16.543z" horiz-adv-x="480"/><glyph unicode="" d="M381.523 361.835l-86.147 86.147H105.853v-68.918H2.477V.017h275.67v68.918h103.376v292.9zm-86.147 61.783l61.784-61.783h-61.784v61.783zM19.706 17.248v344.587H174.77v-86.147h86.148V17.248H19.706zM192 354.7l61.784-61.783H192V354.7zm86.147-268.535v206.753L192 379.065h-68.918v51.688h155.065v-86.147h86.147V86.166h-86.147z" horiz-adv-x="384"/><glyph unicode="" d="M249.59 420.19v-41.576l12.795-3.307c14.478-3.74 28.29-9.554 41.05-17.3l11.447-6.948 29.755 29.753 36.186-36.185-30.213-30.205 6.506-11.33c7.214-12.56 12.612-26.164 16.027-40.424l3.14-13.08h43.91v-51.18H375.3l-3.456-12.52c-3.732-13.502-9.33-26.456-16.643-38.5l-6.947-11.455 32.57-32.562-36.185-36.185-33.03 33.02-11.32-6.505c-11.745-6.756-24.498-11.92-37.893-15.378l-12.804-3.3V27.812h-51.18v47.216l-12.803 3.3c-13.395 3.456-26.148 8.62-37.894 15.377l-11.33 6.506-33.02-33.03-36.185 36.194 32.57 32.562-6.947 11.454c-7.313 12.045-12.91 25-16.642 38.502l-3.457 12.52H27.81v51.18h43.91l3.14 13.078c3.414 14.26 8.812 27.864 16.026 40.425l6.506 11.33-30.213 30.204 36.185 36.184 29.755-29.754 11.446 6.947c12.762 7.747 26.573 13.562 41.05 17.3l12.796 3.308v41.575h51.178zM224 147.213c42.334 0 76.77 34.445 76.77 76.787 0 42.333-34.436 76.778-76.77 76.778S147.23 266.333 147.23 224c0-42.342 34.436-76.787 76.77-76.787zm42.65 290.037h-85.3v-45.424c-16.294-4.207-31.605-10.72-45.632-19.234l-32.354 32.353-60.31-60.317 33.038-33.038c-7.972-13.877-13.995-28.964-17.827-44.94H10.75v-85.3h48.964c4.216-15.253 10.48-29.597 18.502-42.817l-35.162-35.16 60.31-60.327 35.852 35.86c13.062-7.505 27.198-13.252 42.134-17.1V10.75h85.3v51.055c14.936 3.85 29.072 9.596 42.134 17.102l35.853-35.852 60.31 60.317-35.162 35.16c8.022 13.22 14.286 27.566 18.502 42.818h48.964v85.3h-47.514c-3.832 15.977-9.855 31.063-17.827 44.94l33.037 33.038-60.31 60.317-32.354-32.353c-14.028 8.513-29.338 15.027-45.632 19.234v45.424zM224 164.273c-32.987 0-59.71 26.74-59.71 59.727 0 32.986 26.723 59.718 59.71 59.718s59.71-26.73 59.71-59.718c0-32.987-26.723-59.727-59.71-59.727z" horiz-adv-x="448"/><glyph unicode="" d="M239.87 392.118c6.632 7.513 10.78 17.277 10.78 28.08 0 23.55-19.084 42.642-42.65 42.642-23.557 0-42.65-19.093-42.65-42.64 0-10.805 4.148-20.57 10.78-28.082C78.21 376.808 3.28 292.108 3.28 189.88 3.28 76.807 94.944-14.84 208-14.84s204.72 91.647 204.72 204.72c0 102.218-74.93 186.927-172.85 202.238zM208 445.78c14.11 0 25.59-11.48 25.59-25.58s-11.48-25.583-25.59-25.583-25.59 11.48-25.59 25.58S193.89 445.78 208 445.78zm0-443.56c-103.477 0-187.66 84.183-187.66 187.66S104.523 377.54 208 377.54s187.66-84.183 187.66-187.66S311.477 2.22 208 2.22zM105.682 87.387l138.804 65.74 65.75 138.813-139.263-65.3-65.29-139.253zm74.27 118.212l43.543-43.542-82.21-38.935 38.668 82.476zm55.604-31.48l-43.54 43.54 82.483 38.677-38.944-82.218z" horiz-adv-x="416"/><glyph unicode="" d="M378.625 402.876H37.375c-18.843 0-34.12-15.277-34.12-34.12V146.86c0-18.843 15.277-34.12 34.12-34.12h239.49l67.615-67.616v67.616h34.146c18.842 0 34.12 15.277 34.12 34.12v221.896c0 18.843-15.28 34.12-34.12 34.12zm17.06-256.016c0-9.405-7.656-17.06-17.06-17.06H327.42V86.308L283.93 129.8H37.374c-9.404 0-17.06 7.655-17.06 17.06v221.896c0 9.405 7.656 17.06 17.06 17.06h341.25c9.404 0 17.06-7.655 17.06-17.06V146.86zM208 274.81c-9.42 0-17.06-7.647-17.06-17.06 0-9.42 7.64-17.06 17.06-17.06s17.06 7.64 17.06 17.06c0 9.413-7.64 17.06-17.06 17.06zm68.24 0c-9.42 0-17.06-7.647-17.06-17.06 0-9.42 7.64-17.06 17.06-17.06s17.06 7.64 17.06 17.06c0 9.413-7.64 17.06-17.06 17.06zm-134.873 0c-9.42 0-17.06-7.647-17.06-17.06 0-9.42 7.64-17.06 17.06-17.06s17.06 7.64 17.06 17.06c0 9.413-7.638 17.06-17.06 17.06z" horiz-adv-x="416"/><glyph unicode="" d="M335.517 164.29h68.673v136.48H11.81V172.82c0-89.507 72.563-162.07 162.07-162.07 86.625 0 157.18 68.023 161.637 153.54zm.433 119.42h51.18V181.35h-51.18v102.36zM173.88 27.81c-79.96 0-145.01 65.05-145.01 145.01v110.89h290.02V172.82c0-79.96-65.05-145.01-145.01-145.01zM11.81-6.31h324.14v17.06H11.81zm85.3 435.03h17.06v-76.77H97.11v76.77zm136.48 0h17.06v-76.77h-17.06v76.77zm-68.24 25.59h17.06V351.95h-17.06v102.36z" horiz-adv-x="416"/><glyph unicode="" d="M286.3 368.885c63.5 0 115.156-51.647 115.156-115.155 0-.35-.042-.717-.067-1.066-.05-.85-.11-1.7-.126-2.566l-.433-17.41 17.436-.067c42.2-.116 76.528-34.552 76.528-76.753 0-42.084-34.262-76.52-76.37-76.737l-3.723-.016H102.43c-46.99.05-85.224 38.3-85.224 85.283 0 36.403 23.174 68.806 57.653 80.636l9.595 3.28 1.69 9.997c4.182 24.674 25.374 42.583 50.39 42.583 7.97 0 15.676-1.85 22.9-5.48l15.552-7.814 7.505 15.692c19.067 39.853 59.817 65.593 103.81 65.593zm0 17.06c-52.612 0-97.91-30.804-119.195-75.287-9.205 4.632-19.567 7.297-30.572 7.297-33.77 0-61.742-24.574-67.207-56.794C29.11 247.367.146 209.315.146 164.4c0-56.494 45.79-102.293 102.268-102.343l316.102.016c51.596.268 93.338 42.15 93.338 93.798 0 51.73-41.84 93.664-93.538 93.814.033 1.366.2 2.682.2 4.048 0 73.02-59.194 132.215-132.215 132.215z"/><glyph unicode="" d="M208 428.72C94.944 428.72 3.28 337.056 3.28 224 3.28 110.943 94.944 19.28 208 19.28S412.72 110.943 412.72 224c0 113.056-91.664 204.72-204.72 204.72zm0-392.38C104.523 36.34 20.34 120.523 20.34 224c0 103.476 84.183 187.66 187.66 187.66S395.66 327.476 395.66 224c0-103.477-84.183-187.66-187.66-187.66zm0 170.6H105.64v-17.06h119.42v169.9H208z" horiz-adv-x="416"/><glyph unicode="" d="M224 437.25c-117.77 0-213.25-95.47-213.25-213.25S106.23 10.75 224 10.75 437.25 106.22 437.25 224 341.77 437.25 224 437.25zm0-409.44C115.817 27.81 27.81 115.825 27.81 224c0 108.174 88.007 196.19 196.19 196.19 108.183 0 196.19-88.016 196.19-196.19 0-108.175-88.007-196.19-196.19-196.19zm106.675 272.327l-136.938-132.79-47.973 47.964c-5 5-13.095 5-18.093 0-4.998-4.997-4.998-13.093 0-18.092l56.878-56.877c2.5-2.498 5.773-3.748 9.047-3.748 3.207 0 6.422 1.2 8.904 3.607l145.984 141.56c5.073 4.923 5.198 13.02.283 18.093-4.938 5.082-13.027 5.198-18.092.284z" horiz-adv-x="448"/><glyph unicode="" d="M309.3 309.296v127.95H10.75v-230.31H138.7V78.986h177.015l68.24-68.23H394.6v68.23h42.65v230.31H309.3zm-281.49-85.3v196.19h264.43v-110.89H138.7v-85.3H27.81zm392.38-127.95h-42.65V41.292l-54.762 54.754H155.76v196.19h264.43V96.046z" horiz-adv-x="448"/><glyph unicode="" d="M473.946 326.36h-358.52L86.482 445.78H6.055v-17.06H73.07l83.175-343.09c-17.735-5.166-30.77-21.352-30.77-40.76 0-23.55 19.09-42.65 42.65-42.65 23.556 0 42.65 19.1 42.65 42.65 0 9.646-3.325 18.45-8.723 25.59h119.794c-5.398-7.14-8.713-15.944-8.713-25.59 0-23.55 19.084-42.65 42.64-42.65 23.567 0 42.66 19.1 42.66 42.65 0 23.565-19.093 42.64-42.65 42.65H173.33l-8.272 34.12h239.49l69.398 204.72zM193.714 44.87c0-14.11-11.48-25.59-25.59-25.59s-25.59 11.48-25.59 25.59 11.48 25.59 25.59 25.59 25.59-11.48 25.59-25.59zm187.66 0c0-14.11-11.48-25.59-25.6-25.59-14.102 0-25.58 11.48-25.58 25.59s11.48 25.59 25.58 25.59c14.12 0 25.6-11.48 25.6-25.59zM160.926 138.7l-41.36 170.6h330.588L392.32 138.7H160.926z" horiz-adv-x="480"/><glyph unicode="" d="M403.126 334.89H332.57l-41.017 41.117c-.05.05-.09.083-.133.133l-.075.067c-6.164 6.097-14.627 9.863-23.982 9.863h-85.3c-9.913 0-18.75-4.282-24.99-11.03l-.033.1-40.168-40.25H44.866c-18.843 0-34.12-15.278-34.12-34.12V96.05c0-18.843 15.277-34.12 34.12-34.12h358.26c18.85 0 34.13 15.277 34.13 34.12v204.72c-.002 18.842-15.28 34.12-34.13 34.12zm17.068-238.84c0-9.397-7.664-17.06-17.07-17.06H44.867c-9.404 0-17.06 7.663-17.06 17.06v204.72c0 9.413 7.656 17.06 17.06 17.06h79.077l25.656 25.706.416-1.25 19.584 21.176c3.315 3.582 7.738 5.548 12.46 5.548h85.3c4.507 0 8.772-1.75 12.113-5.048l46.015-46.132h77.637c9.404 0 17.07-7.647 17.07-17.06V96.05zM223.996 317.83c-61.243 0-110.89-49.63-110.89-110.874S162.753 96.05 223.996 96.05s110.89 49.663 110.89 110.906S285.24 317.83 223.996 317.83zm0-204.72c-51.738 0-93.83 42.1-93.83 93.846 0 51.73 42.092 93.814 93.83 93.814s93.83-42.084 93.83-93.814c0-51.746-42.092-93.846-93.83-93.846zm0 170.6c-42.41 0-76.77-34.354-76.77-76.754s34.36-76.786 76.77-76.786 76.77 34.386 76.77 76.786-34.362 76.754-76.77 76.754zm0-136.48c-32.92 0-59.71 26.806-59.71 59.726s26.79 59.694 59.71 59.694 59.71-26.773 59.71-59.694-26.79-59.726-59.71-59.726z" horiz-adv-x="448"/><glyph unicode="" d="M326.51-6.31c-38.9 0-133.447 49.748-212.85 156.523C39.4 250.083 3.297 322.23 3.297 370.777c0 38.226 26.398 56.47 40.576 66.265l3.5 2.44c15.668 11.204 40.033 14.828 49.37 14.828 16.378 0 23.284-9.588 27.465-17.943 3.548-7.064 32.97-70.247 35.952-78.102 4.573-12.078 3.065-29.68-11.08-39.8l-2.482-1.734c-7.023-4.864-20.084-13.91-21.89-24.906-.884-5.347.907-10.937 5.472-17.093 22.774-30.687 95.488-120.793 108.6-133.03 10.27-9.596 23.282-10.962 32.145-3.49 9.17 7.73 13.245 12.295 13.286 12.345l.942.908c.775.65 7.94 6.33 19.65 6.33 8.447 0 17.044-2.915 25.532-8.654 22.05-14.895 71.797-48.174 71.797-48.174l.81-.608c6.363-5.456 15.56-21.166 4.84-41.617-11.113-21.225-45.608-65.05-81.27-65.05zM96.744 437.25c-8.08 0-27.94-3.415-39.46-11.645l-3.707-2.59c-13.228-9.148-33.22-22.96-33.22-52.24 0-44.748 35.003-113.563 107-210.384C205.982 54.64 295.863 10.75 326.51 10.75c26.065 0 55.946 36.41 66.158 55.903 6.273 11.97 1.14 18.717-.633 20.542-5.756 3.856-50.62 33.87-71.247 47.806-5.623 3.807-11.005 5.73-15.985 5.73-4.523 0-7.497-1.606-8.505-2.24-1.666-1.783-6.247-6.473-14.378-13.328-15.218-12.81-38.368-11.27-54.786 4.065-14.77 13.786-89.365 106.658-110.65 135.34-7.363 9.92-10.26 20.025-8.613 30.03 2.992 18.134 19.92 29.854 29.015 36.152l2.266 1.59c8.123 5.806 6.407 16.32 5.058 19.876-2.516 6.623-31.563 69.156-35.244 76.503-3.016 6.015-5.382 8.53-12.22 8.53z" horiz-adv-x="416"/><glyph unicode="" d="M40.58 317.83h238.84v68.24H40.58v-68.24zm17.06 51.18h204.72v-34.12H57.64v34.12zm221.78 59.71H40.58c-18.843 0-34.12-15.277-34.12-34.12V53.4c0-18.843 15.277-34.12 34.12-34.12h238.84c18.843 0 34.12 15.277 34.12 34.12v341.2c0 18.843-15.277 34.12-34.12 34.12zM296.48 53.4c0-9.413-7.655-17.06-17.06-17.06H40.58c-9.404 0-17.06 7.647-17.06 17.06v341.2c0 9.397 7.656 17.06 17.06 17.06h238.84c9.405 0 17.06-7.663 17.06-17.06V53.4zM57.64 241.06v51.18H40.58V224h68.24v17.06H91.76zm0-85.3v51.18H40.58V138.7h68.24v17.06H91.76zm0-85.3v51.18H40.58V53.4h68.24v17.06H91.76zm85.3 170.6v51.18h-17.06V224h68.24v17.06h-17.06zm85.3 0v51.18h-17.06V224h68.24v17.06h-17.06zm-85.3-85.3v51.18h-17.06V138.7h68.24v17.06h-17.06zm0-85.3v51.18h-17.06V53.4h68.24v17.06h-17.06zm85.3 0v136.48h-17.06V53.4h68.24v17.06h-17.06z" horiz-adv-x="320"/><glyph unicode="" d="M10.746 437.25V10.75h426.508v426.5H10.746zm409.448-17.06v-68.24H27.806v68.24h392.388zM27.806 27.81v307.08h392.388V27.81H27.806zm93.83 366.79h264.438v-17.06H121.636v17.06zm-68.24 0h17.06v-17.06h-17.06v17.06zm34.12 0h17.06v-17.06h-17.06v17.06z" horiz-adv-x="448"/><glyph unicode="" d="M461.93 383.592L240 465.185 9.69 380.652V66.374L240-17.186l230.31 83.56v314.144l-8.38 3.074zM231.47 4.065L26.75 78.337v283.947l204.72-74.272V4.065zm8.53 299.01L42.778 374.627 240 447.008l197.04-72.446L240 303.074zM453.25 78.336L248.53 4.065v283.948l204.72 73.97V78.338z" horiz-adv-x="480"/><glyph unicode="" d="M412.72 415.925H3.28v-110.89h17.07V32.075h375.31v272.96h17.06v110.89zM378.6 49.135H37.41v255.9H378.6v-255.9zm17.06 272.96H20.34v76.77h375.32v-76.77zM146.3 194.07h123.817c17.627 0 31.93 13.887 31.93 31.03v6.182c0 17.143-14.303 31.03-31.93 31.03H146.3c-17.636 0-31.914-13.887-31.914-31.03v-6.18c0-17.145 14.278-31.03 31.913-31.03zm-14.853 37.21c0 7.706 6.664 13.97 14.853 13.97h123.818c8.197 0 14.87-6.263 14.87-13.97v-6.18c0-7.706-6.672-13.97-14.87-13.97h-123.82c-8.188 0-14.852 6.264-14.852 13.97v6.18z" horiz-adv-x="416"/><glyph unicode="" d="M403.155 420.248h-153.54c-10.262 0-19.36-4.623-25.606-11.804-6.265 7.18-15.362 11.804-25.624 11.804H44.846c-18.844 0-34.12-15.277-34.12-34.12V95.99c0-18.842 15.276-34.12 34.12-34.12h153.54c.165 0 .332.05.5.05 9.078-.216 16.392-7.538 16.61-16.6V27.75h17.06v9.464h.166v7.69c0 9.22 7.363 16.717 16.527 17.01.115 0 .25-.043.365-.043h153.54c18.843 0 34.12 15.278 34.12 34.12V386.13c0 18.843-15.278 34.12-34.12 34.12zM27.785 95.992v290.136c0 9.404 7.663 17.06 17.06 17.06h153.54c9.413 0 17.06-7.656 17.06-17.06V95.99c0-9.403-7.647-17.06-17.06-17.06H44.845c-9.396.002-17.06 7.657-17.06 17.062zm392.43 0c0-9.404-7.647-17.06-17.06-17.06h-153.54c-9.396 0-17.06 7.656-17.06 17.06v290.136c0 9.404 7.664 17.06 17.06 17.06h153.54c9.413 0 17.06-7.656 17.06-17.06V95.992z" horiz-adv-x="448"/><glyph unicode="" d="M418.07 270.927c-11.795 0-23.04-2.283-33.445-6.264l-41.983 83.026h32.778v17.06h-60.518l17.252-34.12H184.38l-8.615 17.06h29.055v17.06h-56.777l19.184-37.994c-.1-.142-.233-.258-.316-.408l-36.168-62.96c-11.313 4.84-23.75 7.54-36.81 7.54-51.74 0-93.83-42.092-93.83-93.84 0-51.737 42.09-93.83 93.83-93.83 48.855 0 89.073 37.553 93.397 85.3h69.83c3.04 0 5.847 1.617 7.38 4.25l78.77 135.755 26.014-51.446c-26.98-16.494-45.083-46.15-45.083-80.028 0-51.747 42.093-93.84 93.83-93.84 51.74 0 93.83 42.092 93.83 93.84s-42.09 93.837-93.83 93.837zm-241.68 37.677l62.1-122.986H187.33c-2.632 29.047-18.526 54.296-41.584 69.63l30.646 53.356zM170.2 185.62h-64.466l31.496 54.82c17.968-12.33 30.438-32.088 32.97-54.82zm-76.27-85.3c-42.334 0-76.77 34.435-76.77 76.77s34.436 76.778 76.77 76.778c9.972 0 19.468-1.966 28.215-5.44L83.6 181.338c-1.515-2.64-1.507-5.89.018-8.52 1.524-2.633 4.34-4.258 7.38-4.258H170.2c-4.265-38.327-36.826-68.24-76.27-68.24zm161.18 90.24L192.99 313.57H326.49l-71.38-123.01zm162.96-90.25c-42.334 0-76.77 34.445-76.77 76.78 0 27.23 14.295 51.138 35.737 64.774l36.12-71.44 15.226 7.698-36.01 71.222c8.046 2.875 16.676 4.523 25.697 4.523 42.334 0 76.77-34.445 76.77-76.78s-34.436-76.776-76.77-76.776z"/><glyph unicode="" d="M353.177 138.004v137.09c0 71.387-51.664 130.598-119.587 142.643v10.896c0 9.42-7.647 17.06-17.06 17.06h-17.06c-9.43 0-17.06-7.64-17.06-17.06v-10.946C114.62 405.51 63.157 346.365 63.157 275.093V138.005L3.28 89.54V61.884h409.44V89.54l-59.543 48.464zm42.483-59.06H20.34V81.4l59.877 48.465v145.228c0 70.556 57.394 127.95 127.95 127.95 70.54 0 127.95-57.394 127.95-127.95V129.89l59.543-48.463v-2.483zM207.984 2.307c23.573 0 42.7 19.076 42.7 42.65h-85.367c.017-23.574 19.126-42.65 42.667-42.65z" horiz-adv-x="416"/><glyph unicode="" d="M.325 309.616V138.39c0-13.96 11.32-25.28 25.274-25.28h213.565v221.78H25.598c-13.952 0-25.273-11.312-25.273-25.274zm221.78-179.446H25.598c-4.53 0-8.214 3.69-8.214 8.22v171.226c0 4.53 3.682 8.214 8.214 8.214h196.506V130.17zM511.675 224c0 28.114-22.675 50.922-50.73 51.154v34.462c0 13.96-11.313 25.274-25.275 25.274H256.225v-17.06H435.67c4.533 0 8.215-3.682 8.215-8.214V138.39c0-4.53-3.682-8.22-8.214-8.22H256.226v-17.06H435.67c13.963 0 25.275 11.32 25.275 25.28v34.455c28.056.233 50.73 23.032 50.73 51.155zm-50.73-34.08v68.158c18.6-.25 33.67-15.41 33.67-34.078 0-18.668-15.07-33.83-33.67-34.08z"/><glyph unicode="" d="M223.983 437.25c-117.77 0-213.233-95.488-213.233-213.267 0-117.77 95.462-213.233 213.233-213.233 117.77 0 213.267 95.463 213.267 213.233 0 117.78-95.496 213.267-213.267 213.267zm195.99-204.737h-152.99c1.633 58.61 19.975 114.305 53.396 162.27 57.193-32.413 96.594-92.68 99.593-162.27zM223.983 420.19c28.822 0 56.162-6.298 80.835-17.493-34.57-50.397-53.462-108.824-55.062-170.184h-51.513c-1.616 61.36-20.492 119.795-55.08 170.184 24.675 11.204 52.015 17.493 80.82 17.493zm-96.362-25.407c33.42-47.948 51.764-103.65 53.396-162.27H28.026c2.983 69.59 42.4 129.866 99.595 162.27zm-99.593-179.33h153.157C179.55 156.8 161.242 101.048 127.804 53.1c-57.295 32.38-96.78 92.697-99.777 162.353zM223.983 27.81c-28.805 0-56.144 6.29-80.818 17.493 34.587 50.38 53.463 108.774 55.08 170.15h51.512c1.6-61.392 20.492-119.77 55.062-170.15-24.676-11.195-52.015-17.493-80.837-17.493zm96.163 25.274c-33.42 47.948-51.713 103.7-53.33 162.37h153.157c-3-69.666-42.5-129.99-99.827-162.37z" horiz-adv-x="448"/><glyph unicode="" d="M198.23 352.708v-69.99l16.895-.166c117.354-1.133 183.462-53.33 200.68-159.105C351.338 198.017 277 198.052 215.3 198.07h-17.07v-69.39L40.085 240.7 198.23 352.708zm17.06 33.004L10.57 240.702l204.72-145.01v85.317c81.936-.034 157.898-4.166 222.14-118.722 0 72.755-12.02 235.292-222.14 237.324v86.1z" horiz-adv-x="448"/><glyph unicode="" d="M239.992 424.455L9.69 23.545h460.62l-230.318 400.91zm0-34.253L440.838 40.605H39.162l200.83 349.597zm-8.53-127.817h17.06v-119.42h-17.06v119.42zm8.513-145.01c-7.064 0-12.77-5.73-12.77-12.795 0-7.047 5.707-12.778 12.77-12.778 7.09 0 12.82 5.73 12.82 12.778 0 7.065-5.73 12.795-12.82 12.795z" horiz-adv-x="480"/><glyph unicode="" d="M448.383 87.57l-34.744 70.564-75.33-30.738 6.448-15.794 50.422 20.567C371.964 64.262 309.222 14.65 234.418 11.107V318.43c33.646 4.207 59.71 32.854 59.71 67.65 0 37.685-30.563 68.23-68.248 68.23-37.677 0-68.232-30.546-68.232-68.23 0-34.796 26.065-63.45 59.71-67.65V11.11c-74.154 3.514-136.47 52.28-160.162 119.277l46.048-18.784 6.448 15.794-75.33 30.738L-.382 87.57l15.31-7.53 24.415 49.58C64.842 50.86 138.746-6.31 225.886-6.31c85.417 0 158.222 54.88 185.095 131.216l22.092-44.866 15.31 7.53zM174.706 386.08c0 28.213 22.958 51.17 51.172 51.17 28.222 0 51.188-22.958 51.188-51.17 0-28.223-22.965-51.18-51.188-51.18-28.213 0-51.172 22.956-51.172 51.18z" horiz-adv-x="448"/><glyph unicode="" d="M9.69 360.48V19.28h460.62v341.2H9.69zM453.25 36.34H26.75v307.08h426.5V36.34zM43.81 394.6h392.38v-17.06H43.81v17.06zm34.12 34.12h324.14v-17.06H77.93v17.06z" horiz-adv-x="480"/><glyph unicode="" d="M223.875 386.053c-103.66 0-187.66-84.017-187.66-187.66 0-47.032 17.35-89.998 45.95-122.935l-43.9-53.812 13.21-10.78 42.542 52.13C127.73 30.66 173.46 10.752 223.875 10.752c50.53 0 96.362 20.01 130.107 52.497L396.5 10.8l13.26 10.746-43.932 54.195c28.455 32.905 45.707 75.755 45.707 122.653 0 103.643-84.034 187.66-187.66 187.66zm0-358.243c-94.072 0-170.6 76.52-170.6 170.583 0 94.08 76.528 170.6 170.6 170.6 94.07 0 170.6-76.52 170.6-170.6 0-94.063-76.528-170.583-170.6-170.583zM146.73 437.25H96.05c-47.115 0-85.3-38.185-85.3-85.3v-51.33h24.257L146.73 412.976v24.274zm-17.06-17.243L27.81 317.68v34.27c0 37.618 30.613 68.24 68.24 68.24h33.62v-.183zm222.28 17.243h-50.713v-24.274l111.74-112.356h24.274v51.33c0 47.115-38.202 85.3-85.3 85.3zm68.24-119.57h-.117L318.297 420.007v.183h33.653c37.627 0 68.24-30.622 68.24-68.24v-34.27zM215.47 198.41h-94.047v-17.06H232.53v153.54h-17.06z" horiz-adv-x="448"/><glyph unicode="" d="M412.72 403.13H3.28v-255.9h138.913L54.46 44.87h307.08L273.8 147.23h138.92v255.9zM91.554 61.93l116.438 135.856L324.446 61.93H91.554zM395.66 164.29H259.17L207.99 224l-51.18-59.71H20.34v221.78h375.32V164.29z" horiz-adv-x="416"/><glyph unicode="" d="M11.56 320.504L-.505 308.44 83.938 224-.104 139.955l12.063-12.063L96 211.935l84.044-84.042 12.063 12.063L108.065 224l84.442 84.44-12.063 12.064L96 236.062z" horiz-adv-x="192"/><glyph unicode="" d="M73.21 374.79c-83.287-83.29-83.287-218.294 0-301.582s218.29-83.285 301.58.003c83.287 83.29 83.29 218.29.002 301.58s-218.293 83.287-301.58 0zM362.727 85.273c-76.49-76.49-200.96-76.494-277.452-.003-76.49 76.492-76.49 200.965 0 277.456 76.49 76.49 200.963 76.49 277.455 0 76.49-76.49 76.486-200.96-.004-277.452zM139.56 320.504l-12.064-12.063L211.938 224l-84.042-84.044 12.063-12.063L224 211.935l84.044-84.042 12.063 12.063L236.065 224l84.442 84.44-12.063 12.064L224 236.062z" horiz-adv-x="448"/><glyph unicode="" d="M108.27 275.05L96.2 287.123-.365 190.556l12.07-12.07L96.2 262.983l84.096-84.096 12.07 12.07-48.204 48.204z" horiz-adv-x="192"/><glyph unicode="" d="M223.608 10.736c117.862 0 213.386 95.523 213.386 213.386S341.47 437.508 223.608 437.508 10.223 341.984 10.223 224.122 105.746 10.736 223.608 10.736zm0 409.7c108.243 0 196.315-88.07 196.315-196.314 0-108.243-88.072-196.315-196.315-196.315S27.293 115.88 27.293 224.122c0 108.245 88.072 196.315 196.315 196.315zm12.187-145.385l-12.07 12.072-96.565-96.566 12.07-12.07 84.494 84.496 84.097-84.096 12.07 12.07-48.203 48.204z" horiz-adv-x="448"/><glyph unicode="" d="M98.538 211.73l12.07 12.07-96.566 96.565-12.07-12.07L86.47 223.8 2.37 139.704l12.07-12.07 48.204 48.204z" horiz-adv-x="128"/><glyph unicode="" d="M10.223 224.122c0-117.862 95.523-213.386 213.386-213.386s213.385 95.523 213.385 213.386-95.524 213.386-213.387 213.386S10.223 341.984 10.223 224.122zm409.7 0c0-108.243-88.07-196.315-196.315-196.315-108.243 0-196.315 88.072-196.315 196.315s88.072 196.315 196.315 196.315c108.245 0 196.315-88.072 196.315-196.315zm-145.385-12.187l12.07 12.07-96.566 96.566-12.07-12.068 84.497-84.496-84.098-84.096 12.07-12.07 48.204 48.204z" horiz-adv-x="448"/><glyph unicode="" d="M12.68 236.27L.607 224.2l96.567-96.565 12.07 12.07L24.747 224.2l84.096 84.096-12.07 12.07L48.57 272.16z" horiz-adv-x="128"/><glyph unicode="" d="M436.994 224.122c0 117.862-95.523 213.386-213.386 213.386S10.223 341.984 10.223 224.122 105.746 10.736 223.61 10.736s213.384 95.524 213.384 213.386zm-409.7 0c0 108.243 88.07 196.315 196.314 196.315 108.243 0 196.315-88.072 196.315-196.315S331.85 27.807 223.608 27.807c-108.244 0-196.315 88.072-196.315 196.315zm145.385 12.187l-12.072-12.072 96.567-96.565 12.07 12.07-84.497 84.495 84.096 84.096-12.07 12.07L208.57 272.2z" horiz-adv-x="448"/><glyph unicode="" d="M83.73 173.193l12.07-12.07 96.565 96.566-12.07 12.068L95.8 185.262l-84.096 84.096-12.07-12.07 48.204-48.204z" horiz-adv-x="192"/><glyph unicode="" d="M223.608 437.508c-117.862 0-213.386-95.523-213.386-213.386S105.745 10.736 223.608 10.736s213.386 95.523 213.386 213.386-95.523 213.386-213.386 213.386zm0-409.7c-108.243 0-196.315 88.07-196.315 196.314 0 108.243 88.072 196.315 196.315 196.315s196.315-88.072 196.315-196.315c0-108.245-88.072-196.315-196.315-196.315zM211.42 173.192l12.072-12.07 96.565 96.566-12.07 12.068-84.495-84.496-84.096 84.096-12.07-12.07 48.204-48.204z" horiz-adv-x="448"/><glyph unicode="" d="M192.4 221.5l-12.1 12.1 76.4 76.4 76.4-76.4-12.1-12.1-55.8 55.8V54h-17.1v223.3l-55.7-55.8zm226.7 105.4c0 1.4.2 2.7.2 4 0 73.1-59.2 132.3-132.3 132.3-52.6 0-97.9-30.8-119.2-75.3-9.2 4.6-19.6 7.3-30.6 7.3-33.8 0-61.8-24.6-67.2-56.8C29.8 324.6.8 286.5.8 241.6c0-56.5 45.8-102.3 102.3-102.3h111v17.1h-111c-47 0-85.2 38.3-85.2 85.3 0 36.4 23.2 68.8 57.7 80.7l9.6 3.3 1.7 10c4.2 24.7 25.4 42.6 50.4 42.6 8 0 15.7-1.9 22.9-5.5l15.6-7.8 7.5 15.7c19 39.7 59.7 65.4 103.7 65.4 63.5 0 115.2-51.7 115.2-115.2 0-.3 0-.7-.1-1.1-.1-.8-.1-1.7-.1-2.6l-.4-17.4 17.4-.1c42.2-.1 76.6-34.6 76.6-76.8 0-42.1-34.3-76.5-76.4-76.7H299.4v-17.1h119.9c51.6.3 93.4 42.2 93.4 93.8-.1 51.9-41.9 93.9-93.6 94z"/><glyph unicode="" d="M320.8 74.2l12.1-12.1-76.4-76.4-76.4 76.4 12.1 12.1L248 18.4v223.3h17V18.4l55.8 55.8zm98 252.7c0 1.4.2 2.7.2 4 0 73.1-59.2 132.3-132.2 132.3-52.6 0-97.9-30.8-119.2-75.3-9.2 4.6-19.6 7.3-30.6 7.3-33.8 0-61.8-24.6-67.2-56.8C29.6 324.6.6 286.5.6 241.6c0-56.5 45.8-102.3 102.3-102.3h111v17.1h-111c-47 0-85.2 38.3-85.2 85.3 0 36.4 23.2 68.8 57.7 80.7l9.6 3.3 1.7 10c4.2 24.7 25.4 42.6 50.4 42.6 8 0 15.7-1.9 22.9-5.5l15.6-7.8 7.5 15.7c19.1 39.9 59.8 65.6 103.8 65.6C350.3 446.1 402 394.5 402 331c0-.3 0-.7-.1-1.1-.1-.8-.1-1.7-.1-2.6l-.4-17.4 17.4-.1c42.2-.1 76.6-34.6 76.6-76.8 0-42.1-34.3-76.5-76.4-76.7H299.1v-17.1H419c51.6.3 93.4 42.2 93.4 93.8 0 51.8-41.9 93.8-93.6 93.9z"/><glyph unicode="" d="M268.548 307.922c-27.797 0-50.35-22.542-50.35-50.346 0-27.81 22.553-50.362 50.35-50.362 27.818 0 50.354 22.55 50.354 50.362 0 27.803-22.538 50.345-50.354 50.345zm0-83.922c-18.504 0-33.567 15.064-33.567 33.577 0 18.505 15.065 33.56 33.568 33.56 18.522 0 33.57-15.055 33.57-33.56 0-18.514-15.048-33.577-33.57-33.577zM67.136 383.452V131.687H469.96v251.765H67.136zm386.042-56.784V148.47H83.922v218.197h369.256V326.67zm-73.236-211.766H50.352v234.98H33.57V98.117h402.825v16.786H419.61zm-33.57-33.57H16.785v234.98H0V64.548h402.825V81.33H386.04zM109.1 349.358h50.354v-16.784H109.1v16.784zm0-167.32h50.354v-16.783H109.1v16.784zm268.55 167.32h50.354v-16.784H377.65v16.784zm0-167.32h50.354v-16.783H377.65v16.784z" horiz-adv-x="470"/><glyph unicode="" d="M118.982-31.232v233.236L17.195 100.274 5.328 112.147l107.804 107.736L.002 332.92l11.867 11.875 107.114-107.037v241.476l138.684-138.61-120.8-120.74 116.704-116.62L118.986-31.23zm16.784 228.482V9.27l94.067 93.994-94.067 93.986zm0 241.48V242.513l98.165 98.11-98.165 98.107z" horiz-adv-x="258"/><glyph unicode="" d="M184.708 299.464h117.475l50.353 59.175-50.353 58.314H184.707v33.63h-16.784v-33.63H16.78v-117.49h151.143V282.74H50.35L-.002 224.427l50.352-59.17h117.573V-2.59h16.784v167.845H335.75V282.74H184.708v16.723zM33.568 316.25v83.92H294.5l35.93-41.608-35.996-42.313H33.568zm285.4-50.293V182.04H58.12l-36.01 42.304 35.93 41.613h260.925zM50.23 383.452h83.922v-16.784H50.23v16.784zm167.884-134.365h83.922v-16.785h-83.922v16.785z" horiz-adv-x="353"/><glyph unicode="" d="M268.567 282.745h117.476V265.96H268.567v16.785zm-.017-100.706h117.492v-16.785H268.55v16.784zm0 50.353h83.792v-16.785H268.55v16.785zm-16.784 151.06v50.352h-67.138v-50.353H0V14.195h436.394v369.257H251.767zm167.844-16.787v-33.568H251.766v33.57H419.61zM201.412 417.02h33.57v-83.922h-33.57v83.922zM16.785 366.666H184.63v-33.568H16.785v33.57zm0-335.687v285.333H419.61V30.98H16.785zm230.62 74.595c-12.112 5.046-40.715 14.98-58.434 20.21-1.507.473-1.735.557-1.735 6.85 0 5.18 2.13 10.408 4.21 14.834 2.244 4.81 4.934 12.89 5.884 20.143 2.688 3.13 6.342 9.277 8.72 21.005 2.048 10.327 1.096 14.088-.28 17.628-.148.37-.296.73-.41 1.098-.524 2.428.196 15.012 1.968 24.786 1.212 6.696-.31 20.952-9.54 32.743-5.82 7.452-16.964 16.6-37.34 17.87l-11.18-.008c-20.013-1.262-31.176-10.413-36.994-17.862-9.228-11.792-10.767-26.048-9.555-32.743 1.786-9.774 2.49-22.358 1.983-24.736-.097-.42-.263-.78-.408-1.15-1.36-3.54-2.328-7.3-.264-17.627 2.345-11.728 6-17.874 8.705-21.005.933-7.254 3.623-15.334 5.884-20.144 1.653-3.516 2.44-8.303 2.44-15.065 0-6.293-.245-6.37-1.655-6.82-18.308-5.41-47.468-15.94-58.334-20.694-8.62-3.698-10.72-10.335-10.72-16.32v-7.244h16.786v7.248c0 .27.016.476.032.64.147.08.344.18.624.292 10.326 4.524 38.928 14.834 56.696 20.08 13.357 4.244 13.357 16.783 13.357 22.816 0 9.293-1.28 16.358-4.03 22.228-1.69 3.582-3.755 9.93-4.43 15.137l-.653 5.007-3.293 3.82c-.51.574-3.067 3.902-4.952 13.326-1.278 6.358-.82 7.54-.558 8.228.442 1.082.82 2.163 1.163 3.688 1.476 6.786-.475 23.73-1.85 31.282-.46 2.475.197 11.677 6.245 19.42 5.31 6.793 13.506 10.633 24.357 11.41l10.064.01c11.047-.787 19.34-4.626 24.652-11.425 6.065-7.738 6.704-16.94 6.262-19.403-1.377-7.548-3.328-24.486-1.87-31.313l.147-.652.18-.64c.232-.73.477-1.442.84-2.377.278-.697.735-1.87-.525-8.21-1.903-9.432-4.476-12.792-4.986-13.374l-3.263-3.788-.656-4.966c-.688-5.22-2.75-11.603-4.425-15.178-2.72-5.753-5.82-13.46-5.82-21.996 0-6.033 0-18.59 13.77-22.948 16.767-4.952 44.878-14.654 56.563-19.54 1.77-.755 2.41-1.687 2.593-2.034v-6.786h16.786v7.245c0 5.988-4.15 13.298-12.754 17.002z" horiz-adv-x="437"/><glyph unicode="" d="M210.15 306.852h-16.787v-95.784l52.813-52.812 11.868 11.868-47.896 47.894zm228.98 18.023L320.444 443.562l-89.397-89.405c-9.458 1.983-19.244 3.05-29.29 3.05-78.66 0-142.668-64-142.668-142.665 0-10.033 1.08-19.832 3.047-29.29L0 123.11l24.717-95.927 93.97-22.75 68.22 68.22c4.883-.492 9.833-.77 14.85-.77 78.675 0 142.666 64 142.666 142.657 0 5.015-.264 9.97-.77 14.855l95.477 95.48zm-118.685 94.95l94.952-94.95-75.463-75.456c-11.688 46.287-45.978 83.56-90.48 99.41l70.99 70.993zM113.475 22.956L38.47 41.117l-19.834 76.9 48.828 48.828c15.867-44.502 53.14-78.784 99.43-90.47L113.47 22.96zm88.28 65.71c-69.4 0-125.88 56.46-125.88 125.876 0 69.412 56.482 125.877 125.88 125.877 69.416 0 125.884-56.466 125.884-125.877 0-69.416-56.468-125.875-125.883-125.875z" horiz-adv-x="439"/><glyph unicode="" d="M50.434 253.398c0-88.06 71.382-159.444 159.434-159.444 88.09 0 159.468 71.382 159.468 159.444 0 88.076-71.38 159.458-159.468 159.458-88.05-.002-159.434-71.38-159.434-159.458zm159.437 142.67c78.678 0 142.683-64.002 142.683-142.67 0-78.66-64.007-142.658-142.682-142.658-78.66 0-142.652 63.998-142.652 142.657 0 78.67 63.99 142.672 142.653 142.672zm95.07-329.864l8.08-16.324 15.047 7.442-22.818 46.074-15.047-7.458 7.277-14.67c-26.995-13.752-57.058-21.046-87.61-21.046-106.475 0-193.085 86.658-193.085 193.176 0 72.563 41.11 139.118 105.312 171.99l7.802-15.752 15.03 7.45-22.818 46.063-15.03-7.452 7.573-15.28C44.765 404.726 0 332.336 0 253.396 0 140.436 89.644 48.076 201.496 43.65V18.11c-38.75-1.506-74.84-13.456-105.46-33.256h35.11c24.03 10.752 50.63 16.784 78.627 16.784 27.506 0 54.14-5.966 78.447-16.784h35.257c-30.995 19.964-67.22 31.7-105.197 33.257v25.604c30.224 1.214 59.826 8.868 86.66 22.49z" horiz-adv-x="370"/></font>
</defs>
</svg>
